<svg width="48" height="48" viewBox="0 0 48 48" fill="none" xmlns="http://www.w3.org/2000/svg">
<g clip-path="url(#clip0_30_217)">
<path d="M16 34.0011L24 42.0011M24 42.0011L32 34.0011M24 42.0011V24.0011M41.76 36.1811C43.4988 34.9584 44.8027 33.2134 45.4826 31.1994C46.1624 29.1854 46.1828 27.0071 45.5408 24.9807C44.8988 22.9544 43.6277 21.1853 41.9121 19.9302C40.1965 18.6752 38.1256 17.9994 36 18.0011H33.48C32.8785 15.6568 31.753 13.4796 30.1882 11.6332C28.6235 9.78691 26.6603 8.31961 24.4464 7.34179C22.2325 6.36398 19.8257 5.90114 17.407 5.98812C14.9884 6.0751 12.621 6.70963 10.4831 7.84394C8.34517 8.97825 6.49244 10.5828 5.06436 12.5367C3.63629 14.4907 2.67009 16.7432 2.23851 19.1246C1.80693 21.506 1.92121 23.9543 2.57275 26.2851C3.22429 28.616 4.39611 30.7687 5.99999 32.5811" stroke="#1E1E1E" stroke-width="4" stroke-linecap="round" stroke-linejoin="round"/>
</g>
<defs>
<clipPath id="clip0_30_217">
<rect width="48" height="48" fill="white" transform="translate(0 0.000976562)"/>
</clipPath>
</defs>
</svg>
