<svg width="1466" height="265" viewBox="0 0 1466 265" fill="none" xmlns="http://www.w3.org/2000/svg">
<path d="M125.02 190.207L184.493 237.375L152.559 264.328L94.1117 217.16L125.02 190.207ZM186.983 114.475L186.983 123.117C186.983 139.426 184.688 154.074 180.098 167.062C175.606 179.953 169.161 190.988 160.762 200.168C152.461 209.25 142.647 216.232 131.319 221.115C119.991 225.9 107.491 228.293 93.8188 228.293C80.0492 228.293 67.4516 225.9 56.0258 221.115C44.6977 216.232 34.8344 209.25 26.436 200.168C18.1352 190.988 11.6899 179.953 7.10001 167.062C2.60783 154.074 0.361732 139.426 0.361732 123.117V114.475C0.361732 98.166 2.60783 83.5176 7.10001 70.5293C11.6899 57.541 18.0863 46.5059 26.2895 37.4238C34.5902 28.2441 44.4047 21.2617 55.7328 16.4766C67.1586 11.5938 79.7563 9.15234 93.5258 9.15234C107.198 9.15234 119.698 11.5938 131.026 16.4766C142.452 21.2617 152.315 28.2441 160.616 37.4238C169.014 46.5059 175.508 57.541 180.098 70.5293C184.688 83.5176 186.983 98.166 186.983 114.475ZM134.688 123.117L134.688 114.182C134.688 103.635 133.76 94.3574 131.905 86.3496C130.147 78.2441 127.51 71.457 123.995 65.9883C120.479 60.5195 116.133 56.418 110.957 53.6836C105.879 50.8516 100.069 49.4355 93.5258 49.4355C86.6899 49.4355 80.7328 50.8516 75.6547 53.6836C70.5766 56.418 66.3285 60.5195 62.9106 65.9883C59.4926 71.457 56.9047 78.2441 55.1469 86.3496C53.4867 94.3574 52.6567 103.635 52.6567 114.182V123.117C52.6567 133.566 53.4867 142.844 55.1469 150.949C56.9047 158.957 59.4926 165.744 62.9106 171.311C66.4262 176.877 70.7231 181.076 75.8012 183.908C80.977 186.74 86.9828 188.156 93.8188 188.156C100.362 188.156 106.172 186.74 111.25 183.908C116.329 181.076 120.577 176.877 123.995 171.311C127.51 165.744 130.147 158.957 131.905 150.949C133.76 142.844 134.688 133.566 134.688 123.117ZM303.438 186.838V66.8672H352.95V225.363H306.661L303.438 186.838ZM308.125 154.611L321.016 154.318C321.016 164.963 319.746 174.826 317.207 183.908C314.668 192.893 310.909 200.705 305.928 207.346C301.045 213.986 294.991 219.162 287.764 222.873C280.635 226.486 272.383 228.293 263.008 228.293C255.196 228.293 248.018 227.219 241.475 225.07C235.03 222.824 229.463 219.357 224.776 214.67C220.088 209.885 216.426 203.781 213.789 196.359C211.25 188.84 209.981 179.855 209.981 169.406L209.981 66.8672L259.346 66.8672V169.699C259.346 173.215 259.786 176.242 260.664 178.781C261.543 181.32 262.813 183.469 264.473 185.227C266.133 186.887 268.184 188.156 270.625 189.035C273.164 189.816 276.045 190.207 279.268 190.207C286.69 190.207 292.5 188.645 296.7 185.52C300.899 182.395 303.829 178.146 305.489 172.775C307.246 167.404 308.125 161.35 308.125 154.611ZM432.344 66.8672V225.363H382.832V66.8672H432.344ZM379.903 25.998C379.903 18.9668 382.442 13.2051 387.52 8.71289C392.598 4.2207 399.19 1.97461 407.295 1.97461C415.401 1.97461 421.993 4.2207 427.071 8.71289C432.149 13.2051 434.688 18.9668 434.688 25.998C434.688 33.0293 432.149 38.791 427.071 43.2832C421.993 47.7754 415.401 50.0215 407.295 50.0215C399.19 50.0215 392.598 47.7754 387.52 43.2832C382.442 38.791 379.903 33.0293 379.903 25.998ZM529.756 190.207C534.346 190.207 538.252 189.377 541.475 187.717C544.795 185.959 547.286 183.518 548.946 180.393C550.704 177.17 551.534 173.312 551.436 168.82H597.871C597.969 180.734 595.039 191.184 589.082 200.168C583.223 209.055 575.215 215.988 565.059 220.969C555 225.852 543.623 228.293 530.928 228.293C518.526 228.293 507.686 226.291 498.409 222.287C489.131 218.186 481.368 212.521 475.118 205.295C468.965 197.971 464.327 189.426 461.202 179.66C458.174 169.895 456.661 159.299 456.661 147.873V144.504C456.661 133.078 458.174 122.482 461.202 112.717C464.327 102.854 468.965 94.3086 475.118 87.082C481.368 79.7578 489.082 74.0937 498.262 70.0898C507.539 65.9883 518.33 63.9375 530.635 63.9375C543.819 63.9375 555.44 66.4277 565.498 71.4082C575.655 76.3887 583.614 83.6152 589.375 93.0879C595.137 102.561 597.969 114.035 597.871 127.512H551.436C551.534 122.727 550.801 118.43 549.239 114.621C547.676 110.812 545.235 107.785 541.914 105.539C538.692 103.195 534.541 102.023 529.463 102.023C524.385 102.023 520.284 103.146 517.159 105.393C514.034 107.639 511.641 110.764 509.981 114.768C508.418 118.674 507.344 123.166 506.758 128.244C506.27 133.322 506.026 138.742 506.026 144.504V147.873C506.026 153.732 506.27 159.25 506.758 164.426C507.344 169.504 508.467 173.996 510.127 177.902C511.788 181.711 514.18 184.738 517.305 186.984C520.43 189.133 524.58 190.207 529.756 190.207ZM668.77 0.216797V225.363H619.405V0.216797L668.77 0.216797ZM770.137 66.8672L701.289 147.58L665.254 183.615L643.721 152.268L673.75 113.156L710.957 66.8672H770.137ZM717.256 225.363L674.922 153.146L711.397 127.219L773.799 225.363L717.256 225.363ZM981.368 153.146H1032.64C1031.95 167.99 1027.95 181.076 1020.63 192.404C1013.3 203.732 1003.14 212.57 990.157 218.918C977.266 225.168 962.032 228.293 944.454 228.293C930.196 228.293 917.452 225.9 906.221 221.115C895.088 216.33 885.616 209.445 877.803 200.461C870.088 191.477 864.18 180.588 860.079 167.795C856.075 155.002 854.073 140.598 854.073 124.582V113.01C854.073 96.9941 856.172 82.5898 860.371 69.7969C864.668 56.9062 870.723 45.9687 878.536 36.9844C886.446 27.9023 895.918 20.9687 906.954 16.1836C917.989 11.3984 930.245 9.00586 943.721 9.00586C962.276 9.00586 977.95 12.3262 990.743 18.9668C1003.54 25.6074 1013.45 34.7383 1020.48 46.3594C1027.51 57.8828 1031.66 71.0176 1032.93 85.7637H981.661C981.465 77.7559 980.098 71.0664 977.559 65.6953C975.02 60.2266 971.016 56.125 965.547 53.3906C960.079 50.6562 952.803 49.2891 943.721 49.2891C937.373 49.2891 931.856 50.4609 927.168 52.8047C922.481 55.1484 918.575 58.8594 915.45 63.9375C912.325 69.0156 909.981 75.6074 908.418 83.7129C906.954 91.7207 906.221 101.389 906.221 112.717V124.582C906.221 135.91 906.905 145.578 908.272 153.586C909.639 161.594 911.836 168.137 914.864 173.215C917.891 178.293 921.797 182.053 926.582 184.494C931.465 186.838 937.422 188.01 944.454 188.01C952.266 188.01 958.858 186.789 964.229 184.348C969.6 181.809 973.75 178 976.68 172.922C979.61 167.746 981.172 161.154 981.368 153.146ZM1136.93 185.52V120.187C1136.93 115.695 1136.3 111.838 1135.03 108.615C1133.76 105.393 1131.76 102.902 1129.02 101.145C1126.29 99.2891 1122.63 98.3613 1118.04 98.3613C1114.33 98.3613 1111.15 98.9961 1108.52 100.266C1105.88 101.535 1103.88 103.439 1102.51 105.979C1101.14 108.518 1100.46 111.74 1100.46 115.646H1051.09C1051.09 108.322 1052.71 101.535 1055.93 95.2852C1059.25 88.9375 1063.94 83.4199 1069.99 78.7324C1076.14 74.0449 1083.47 70.4316 1091.96 67.8926C1100.56 65.2559 1110.13 63.9375 1120.67 63.9375C1133.27 63.9375 1144.5 66.0371 1154.37 70.2363C1164.33 74.4355 1172.19 80.7344 1177.95 89.1328C1183.71 97.4336 1186.59 107.883 1186.59 120.48V185.373C1186.59 195.725 1187.18 203.586 1188.35 208.957C1189.52 214.23 1191.18 218.869 1193.33 222.873V225.363H1143.82C1141.48 220.48 1139.72 214.523 1138.55 207.492C1137.47 200.363 1136.93 193.039 1136.93 185.52ZM1142.94 128.537L1143.23 154.904H1121.41C1116.82 154.904 1112.91 155.539 1109.69 156.809C1106.56 158.078 1104.02 159.836 1102.07 162.082C1100.22 164.23 1098.85 166.672 1097.97 169.406C1097.19 172.141 1096.8 175.021 1096.8 178.049C1096.8 180.979 1097.48 183.615 1098.85 185.959C1100.31 188.205 1102.27 189.963 1104.71 191.232C1107.15 192.502 1109.88 193.137 1112.91 193.137C1118.38 193.137 1123.02 192.111 1126.83 190.061C1130.73 187.912 1133.71 185.324 1135.76 182.297C1137.81 179.27 1138.84 176.437 1138.84 173.801L1149.68 194.016C1147.73 197.922 1145.48 201.877 1142.94 205.881C1140.5 209.885 1137.42 213.596 1133.71 217.014C1130.1 220.334 1125.65 223.068 1120.38 225.217C1115.11 227.268 1108.71 228.293 1101.19 228.293C1091.43 228.293 1082.44 226.291 1074.24 222.287C1066.13 218.283 1059.64 212.717 1054.76 205.588C1049.87 198.361 1047.43 190.061 1047.43 180.686C1047.43 172.482 1048.9 165.158 1051.83 158.713C1054.85 152.268 1059.39 146.799 1065.45 142.307C1071.5 137.814 1079.22 134.396 1088.59 132.053C1097.97 129.709 1109 128.537 1121.7 128.537H1142.94ZM1263.79 106.125V225.363H1214.42V66.8672H1260.57L1263.79 106.125ZM1310.66 65.6953L1309.79 111.545C1307.83 111.35 1305.2 111.105 1301.88 110.812C1298.56 110.52 1295.77 110.373 1293.53 110.373C1287.76 110.373 1282.78 111.057 1278.58 112.424C1274.48 113.693 1271.06 115.646 1268.33 118.283C1265.69 120.822 1263.74 124.045 1262.47 127.951C1261.3 131.857 1260.76 136.398 1260.86 141.574L1251.92 135.715C1251.92 125.07 1252.95 115.402 1255 106.711C1257.15 97.9219 1260.18 90.3535 1264.08 84.0059C1267.99 77.5605 1272.73 72.6289 1278.29 69.2109C1283.86 65.6953 1290.11 63.9375 1297.04 63.9375C1299.48 63.9375 1301.88 64.084 1304.22 64.377C1306.66 64.6699 1308.81 65.1094 1310.66 65.6953ZM1415.84 189.035V0.363281L1465.5 0.363281V225.363H1420.97L1415.84 189.035ZM1318.57 148.02V144.943C1318.57 132.932 1319.89 121.994 1322.53 112.131C1325.17 102.17 1329.07 93.625 1334.25 86.4961C1339.42 79.2695 1345.87 73.7031 1353.58 69.7969C1361.3 65.8906 1370.19 63.9375 1380.24 63.9375C1389.23 63.9375 1397.09 66.0371 1403.83 70.2363C1410.57 74.3379 1416.33 80.0996 1421.11 87.5215C1425.9 94.9434 1429.81 103.635 1432.83 113.596C1435.86 123.459 1438.15 134.104 1439.72 145.529V149.191C1438.15 159.934 1435.86 170.09 1432.83 179.66C1429.81 189.133 1425.9 197.531 1421.11 204.855C1416.33 212.18 1410.52 217.941 1403.68 222.141C1396.94 226.242 1389.03 228.293 1379.95 228.293C1369.89 228.293 1361.01 226.291 1353.29 222.287C1345.67 218.283 1339.28 212.668 1334.1 205.441C1329.02 198.215 1325.17 189.719 1322.53 179.953C1319.89 170.187 1318.57 159.543 1318.57 148.02ZM1367.94 144.943V148.02C1367.94 153.977 1368.33 159.494 1369.11 164.572C1369.89 169.65 1371.21 174.143 1373.07 178.049C1375.02 181.857 1377.56 184.836 1380.68 186.984C1383.91 189.133 1387.86 190.207 1392.55 190.207C1398.9 190.207 1404.12 188.693 1408.22 185.666C1412.42 182.639 1415.5 178.342 1417.45 172.775C1419.5 167.209 1420.38 160.666 1420.09 153.146V141.574C1420.28 135.129 1419.84 129.465 1418.77 124.582C1417.7 119.602 1415.99 115.451 1413.64 112.131C1411.4 108.811 1408.52 106.32 1405 104.66C1401.58 102.902 1397.53 102.023 1392.84 102.023C1388.25 102.023 1384.35 103.098 1381.12 105.246C1378 107.395 1375.46 110.422 1373.51 114.328C1371.55 118.137 1370.14 122.678 1369.26 127.951C1368.38 133.127 1367.94 138.791 1367.94 144.943Z" fill="#0077B6" fill-opacity="0.3"/>
</svg>
