<svg width="379" height="237" viewBox="0 0 379 237" fill="none" xmlns="http://www.w3.org/2000/svg">
<g filter="url(#filter0_dd_102_174)">
<mask id="path-1-inside-1_102_174" fill="white">
<path d="M22 18.1875C22 9.79967 28.7997 3 37.1875 3L358.969 3C367.357 3 374.156 9.79968 374.156 18.1875L374.156 216.783C374.156 225.171 367.357 231.971 358.969 231.971L37.1875 231.971C28.7997 231.971 22 225.171 22 216.783L22 18.1875Z"/>
</mask>
<path d="M22 18.1875C22 9.79967 28.7997 3 37.1875 3L358.969 3C367.357 3 374.156 9.79968 374.156 18.1875L374.156 216.783C374.156 225.171 367.357 231.971 358.969 231.971L37.1875 231.971C28.7997 231.971 22 225.171 22 216.783L22 18.1875Z" fill="white" shape-rendering="crispEdges"/>
<path d="M37.1875 5.84766L358.969 5.84766L358.969 0.152343L37.1875 0.152344L37.1875 5.84766ZM371.309 18.1875L371.309 216.783L377.004 216.783L377.004 18.1875L371.309 18.1875ZM358.969 229.123L37.1875 229.123L37.1875 234.818L358.969 234.818L358.969 229.123ZM24.8477 216.783L24.8477 18.1875L19.1523 18.1875L19.1523 216.783L24.8477 216.783ZM37.1875 229.123C30.3724 229.123 24.8477 223.598 24.8477 216.783L19.1523 216.783C19.1523 226.744 27.227 234.818 37.1875 234.818L37.1875 229.123ZM371.309 216.783C371.309 223.598 365.784 229.123 358.969 229.123L358.969 234.818C368.93 234.818 377.004 226.744 377.004 216.783L371.309 216.783ZM358.969 5.84766C365.784 5.84766 371.309 11.3724 371.309 18.1875L377.004 18.1875C377.004 8.22695 368.93 0.152343 358.969 0.152343L358.969 5.84766ZM37.1875 0.152344C27.227 0.152344 19.1523 8.22695 19.1523 18.1875L24.8477 18.1875C24.8477 11.3724 30.3724 5.84766 37.1875 5.84766L37.1875 0.152344Z" fill="#D9D9D9" mask="url(#path-1-inside-1_102_174)"/>
<path d="M42.8291 113.736L28.2814 131.267L10.75 116.719L25.2977 99.1879L42.8291 113.736Z" fill="white"/>
<path fill-rule="evenodd" clip-rule="evenodd" d="M19.1102 100.313L4.56254 117.844L22.0939 132.392L23.9124 130.201L8.57242 117.471L21.3016 102.131L19.1102 100.313Z" fill="#D9D9D9"/>
<path d="M64.42 111.28C60.72 111.28 58.16 108.32 58.16 103.62C58.16 98.92 60.72 96.08 64.42 96.08C68.1 96.08 70.66 98.94 70.66 103.62C70.66 108.32 68.1 111.28 64.42 111.28ZM64.42 109.74C67.04 109.74 68.78 107.38 68.78 103.62C68.78 99.96 67.04 97.7 64.42 97.7C61.78 97.7 60.06 99.96 60.06 103.62C60.06 107.38 61.78 109.74 64.42 109.74ZM68.9 114.7C66.1 114.7 64.2 113.1 63.42 110.96L65.34 110.82C65.92 112.36 67.36 113.14 69.1 113.14C69.76 113.14 70.24 113.06 70.64 112.92L71 114.36C70.54 114.54 69.78 114.7 68.9 114.7ZM76.8438 111.28C74.5638 111.28 73.5238 109.8 73.5238 107.02V100.14H75.3438V106.8C75.3438 108.82 75.9638 109.68 77.4038 109.68C78.5038 109.68 79.3038 109.14 80.3238 107.86V100.14H82.1438V111H80.6438L80.4838 109.3H80.4438C79.4238 110.48 78.3438 111.28 76.8438 111.28ZM85.8322 111V100.14H87.6522V111H85.8322ZM86.7522 97.9C86.0322 97.9 85.5322 97.44 85.5322 96.68C85.5322 95.98 86.0322 95.52 86.7522 95.52C87.4522 95.52 87.9722 95.98 87.9722 96.68C87.9722 97.44 87.4522 97.9 86.7522 97.9ZM95.6 111.28C92.72 111.28 90.52 109.18 90.52 105.6C90.52 101.96 92.96 99.88 95.74 99.88C97.16 99.88 98.16 100.46 98.92 101.16L98 102.36C97.36 101.78 96.68 101.4 95.84 101.4C93.84 101.4 92.4 103.08 92.4 105.6C92.4 108.08 93.78 109.76 95.78 109.76C96.76 109.76 97.66 109.28 98.34 108.68L99.12 109.9C98.16 110.76 96.9 111.28 95.6 111.28ZM101.535 111V95.1H103.335V105.88H103.395L108.015 100.14H110.055L106.435 104.52L110.515 111H108.535L105.355 105.76L103.335 108.14V111H101.535ZM122.743 111.28C119.083 111.28 116.363 108.44 116.363 103.68C116.363 98.96 119.143 96.08 122.863 96.08C124.643 96.08 126.023 96.94 126.883 97.88L125.863 99.08C125.103 98.26 124.123 97.7 122.883 97.7C120.103 97.7 118.263 99.98 118.263 103.64C118.263 107.34 120.023 109.64 122.823 109.64C124.203 109.64 125.283 109.04 126.223 108L127.223 109.16C126.063 110.52 124.643 111.28 122.743 111.28ZM132.297 111.28C130.477 111.28 129.117 110.14 129.117 108.18C129.117 105.82 131.157 104.64 135.777 104.12C135.777 102.72 135.337 101.38 133.557 101.38C132.277 101.38 131.137 101.98 130.297 102.56L129.577 101.28C130.577 100.64 132.097 99.88 133.837 99.88C136.497 99.88 137.617 101.64 137.617 104.34V111H136.117L135.957 109.72H135.877C134.857 110.58 133.637 111.28 132.297 111.28ZM132.797 109.8C133.857 109.8 134.737 109.3 135.777 108.36V105.34C132.117 105.76 130.897 106.66 130.897 108.06C130.897 109.3 131.737 109.8 132.797 109.8ZM141.067 111V100.14H142.547L142.727 102.12H142.787C143.527 100.74 144.647 99.88 145.867 99.88C146.347 99.88 146.667 99.94 147.027 100.1L146.687 101.7C146.307 101.58 146.067 101.52 145.627 101.52C144.727 101.52 143.607 102.18 142.887 104.04V111H141.067ZM152.227 111.28C149.507 111.28 147.747 109.22 147.747 105.6C147.747 102.06 149.987 99.88 152.467 99.88C153.727 99.88 154.567 100.34 155.507 101.14L155.427 99.26V95.1H157.247V111H155.747L155.587 109.72H155.547C154.687 110.58 153.547 111.28 152.227 111.28ZM152.627 109.74C153.647 109.74 154.527 109.24 155.427 108.26V102.56C154.507 101.72 153.667 101.4 152.767 101.4C151.027 101.4 149.647 103.1 149.647 105.58C149.647 108.18 150.727 109.74 152.627 109.74ZM160.669 97.84C161.429 97.82 162.069 97.78 162.469 97.74C163.749 97.6 167.529 97.24 171.209 96.92C173.409 96.74 175.269 96.62 176.609 96.58L176.629 98.18C175.469 98.16 173.729 98.2 172.709 98.48C169.849 99.4 168.109 102.46 168.109 104.82C168.109 108.72 171.769 109.98 175.009 110.1L174.429 111.74C170.729 111.6 166.529 109.64 166.529 105.16C166.529 102.06 168.429 99.5 170.249 98.42C168.109 98.64 163.009 99.14 160.849 99.6L160.669 97.84ZM173.729 100.62C174.189 101.28 174.949 102.52 175.389 103.42L174.349 103.88C173.889 102.92 173.329 101.9 172.729 101.06L173.729 100.62ZM175.909 99.78C176.409 100.44 177.189 101.66 177.649 102.54L176.629 103.04C176.149 102.08 175.549 101.08 174.929 100.24L175.909 99.78ZM187.069 99.18C188.209 99.3 189.289 99.36 190.469 99.36C192.869 99.36 195.329 99.18 197.349 98.76V100.3C195.229 100.66 192.789 100.82 190.449 100.82C189.289 100.82 188.249 100.78 187.089 100.7L187.069 99.18ZM194.069 95.6C194.009 96 193.969 96.42 193.949 96.8C193.909 97.54 193.889 98.96 193.889 100.14C193.889 103.22 194.189 106.34 194.189 108.4C194.189 110.04 193.429 111.64 190.729 111.64C188.049 111.64 186.589 110.56 186.589 108.76C186.589 107.08 188.069 105.76 190.709 105.76C194.069 105.76 196.409 107.46 198.089 108.98L197.229 110.3C195.129 108.34 193.109 106.98 190.569 106.98C189.069 106.98 188.029 107.64 188.029 108.6C188.029 109.64 189.009 110.18 190.469 110.18C192.149 110.18 192.629 109.34 192.629 108C192.629 106.56 192.369 102.82 192.369 100.18C192.369 98.8 192.349 97.54 192.349 96.84C192.349 96.48 192.329 95.96 192.269 95.6H194.069ZM184.209 95.74C184.089 96.06 183.929 96.72 183.849 97.08C183.449 98.94 182.849 102.9 182.849 105.14C182.849 106.12 182.909 106.96 183.049 107.94C183.369 107.02 183.869 105.8 184.209 104.98L185.029 105.62C184.529 107.02 183.789 109.06 183.589 110.04C183.529 110.32 183.489 110.72 183.509 110.94C183.529 111.14 183.549 111.44 183.569 111.64L182.149 111.76C181.769 110.32 181.389 108.12 181.389 105.42C181.389 102.48 182.069 98.66 182.309 97.02C182.389 96.54 182.429 96.02 182.449 95.58L184.209 95.74ZM211.409 104.46H212.429V112.42H211.409V104.46ZM213.969 104.46H215.009V112.42H213.969V104.46ZM206.929 95.42H217.949V96.74H206.929V95.42ZM209.349 107.56H217.329V108.7H209.349V107.56ZM207.709 98.06H209.069V102.48C209.069 105.36 208.729 109.52 206.669 112.32C206.449 112.06 205.869 111.64 205.569 111.48C207.509 108.84 207.709 105.16 207.709 102.46V98.06ZM208.309 98.06H217.449V102.7H208.309V101.46H216.009V99.3H208.309V98.06ZM208.789 104.06H217.409V105.24H209.909V112.62H208.789V104.06ZM216.609 104.06H217.869V111.18C217.869 111.78 217.789 112.14 217.409 112.38C217.049 112.56 216.529 112.6 215.769 112.6C215.729 112.24 215.529 111.72 215.369 111.36C215.869 111.38 216.269 111.38 216.429 111.38C216.569 111.38 216.609 111.34 216.609 111.16V104.06ZM203.029 94.22L204.309 94.7C203.589 96.18 202.649 97.98 201.909 99.1L200.909 98.66C201.609 97.5 202.529 95.54 203.029 94.22ZM205.149 96.5L206.389 97.06C205.069 99.28 203.229 102.12 201.789 103.84L200.889 103.36C202.309 101.58 204.109 98.6 205.149 96.5ZM199.829 98.36L200.629 97.4C201.689 98.38 202.909 99.74 203.429 100.64L202.589 101.74C202.089 100.78 200.889 99.36 199.829 98.36ZM204.389 101.02L205.449 100.62C206.209 101.94 206.949 103.7 207.149 104.82L206.029 105.3C205.809 104.18 205.129 102.38 204.389 101.02ZM199.669 103.06C201.329 102.98 203.709 102.86 206.109 102.72V104C203.849 104.14 201.569 104.28 199.829 104.4L199.669 103.06ZM204.769 105.88L205.829 105.58C206.309 106.72 206.729 108.24 206.829 109.22L205.709 109.56C205.609 108.56 205.229 107.04 204.769 105.88ZM200.869 105.64L202.109 105.86C201.849 107.74 201.369 109.68 200.749 110.96C200.509 110.78 199.929 110.52 199.629 110.4C200.269 109.18 200.649 107.38 200.869 105.64ZM202.889 103.64H204.189V112.6H202.889V103.64ZM220.169 106.44H238.049V107.7H220.169V106.44ZM223.529 99.14H235.909V100.2H223.529V99.14ZM223.529 101.54H235.969V102.62H223.529V101.54ZM223.289 96.58H236.729V97.82H223.289V96.58ZM228.689 97.28H230.149V104.46H228.689V97.28ZM228.309 104.84H229.809V112.6H228.309V104.84ZM227.989 106.9L229.149 107.5C227.169 109.58 223.609 111.48 220.669 112.4C220.449 112 220.009 111.44 219.669 111.14C222.649 110.38 226.169 108.7 227.989 106.9ZM230.149 106.9C231.949 108.66 235.449 110.26 238.449 111C238.129 111.3 237.709 111.86 237.489 112.24C234.509 111.36 230.969 109.52 228.989 107.5L230.149 106.9ZM229.629 94.2L231.309 94.44C230.749 95.5 230.129 96.62 229.609 97.38L228.289 97.1C228.769 96.3 229.349 95.06 229.629 94.2ZM224.409 94.18L225.969 94.46C224.789 96.66 223.109 99.1 220.729 101.1C220.469 100.76 219.969 100.3 219.629 100.1C221.869 98.34 223.509 96 224.409 94.18ZM222.589 97.4H224.029V104H237.509V105.2H222.589V97.4ZM246.069 104.44H258.209V105.66H246.069V104.44ZM247.649 107.6L248.449 106.68C249.489 107.28 250.829 108.18 251.489 108.8L250.649 109.84C250.009 109.2 248.689 108.24 247.649 107.6ZM254.129 103.26L254.869 102.54C255.609 102.94 256.529 103.54 256.989 104L256.209 104.78C255.769 104.34 254.869 103.68 254.129 103.26ZM247.549 105H248.909C248.689 108.1 248.089 110.92 245.849 112.56C245.649 112.26 245.249 111.8 244.929 111.58C246.909 110.18 247.389 107.62 247.549 105ZM251.149 94.22H252.489C252.389 104.18 253.849 111.34 256.569 111.34C257.149 111.34 257.349 110.88 257.449 109.06C257.729 109.34 258.189 109.6 258.509 109.72C258.249 111.98 257.809 112.64 256.469 112.64C252.449 112.62 251.189 104.44 251.149 94.22ZM255.629 105.98L256.909 106.46C255.609 109.22 253.149 111.32 250.069 112.6C249.889 112.34 249.509 111.88 249.229 111.64C252.229 110.48 254.509 108.46 255.629 105.98ZM252.589 97.7L253.209 96.88C254.089 97.48 255.089 98.4 255.549 99.04L254.909 99.98C254.449 99.32 253.449 98.36 252.589 97.7ZM256.329 100.12L257.249 99.76C257.809 100.68 258.349 101.88 258.509 102.64L257.529 103.1C257.349 102.32 256.849 101.06 256.329 100.12ZM252.849 101.52C254.089 101.44 255.749 101.34 257.509 101.22V102.26C255.909 102.42 254.389 102.56 253.069 102.68L252.849 101.52ZM254.909 94.4L256.069 94.86C255.509 95.98 254.829 97.28 254.269 98.1L253.409 97.7C253.909 96.82 254.569 95.38 254.909 94.4ZM256.549 96.4L257.669 96.94C256.649 98.66 255.289 100.8 254.209 102.16L253.369 101.68C254.429 100.3 255.789 98.02 256.549 96.4ZM245.809 97.7L246.449 96.88C247.309 97.48 248.329 98.4 248.769 99.04L248.129 99.98C247.669 99.32 246.669 98.36 245.809 97.7ZM249.289 100.24L250.209 99.9C250.729 100.82 251.209 102.04 251.329 102.8L250.349 103.22C250.209 102.44 249.769 101.2 249.289 100.24ZM245.889 101.74C247.149 101.68 248.789 101.56 250.569 101.42V102.5C248.969 102.66 247.429 102.8 246.109 102.92L245.889 101.74ZM248.149 94.4L249.309 94.88C248.729 95.98 248.049 97.3 247.509 98.12L246.649 97.74C247.149 96.84 247.789 95.38 248.149 94.4ZM249.789 96.4L250.889 96.94C249.849 98.72 248.449 100.94 247.309 102.32L246.449 101.86C247.569 100.44 248.989 98.08 249.789 96.4ZM240.129 98.54H246.189V99.94H240.129V98.54ZM242.669 94.2H244.029V112.58H242.669V94.2ZM242.609 99.38L243.509 99.66C242.949 102.82 241.769 106.76 240.449 108.76C240.289 108.4 239.949 107.84 239.709 107.52C240.929 105.72 242.129 102.22 242.609 99.38ZM243.929 100.7C244.329 101.24 245.889 103.74 246.209 104.32L245.449 105.42C245.049 104.42 243.789 102.06 243.309 101.28L243.929 100.7ZM263.249 94.2L264.809 94.56C264.089 96.22 263.149 98.16 262.349 99.42L261.069 99.04C261.829 97.76 262.769 95.66 263.249 94.2ZM259.889 98.44C261.989 98.38 265.169 98.24 268.309 98.1L268.289 99.44C265.309 99.62 262.209 99.78 260.029 99.9L259.889 98.44ZM261.109 101.34H267.449V102.62H262.509V112.58H261.109V101.34ZM266.769 101.34H268.249V110.88C268.249 111.64 268.089 112.06 267.549 112.3C266.989 112.54 266.109 112.56 264.849 112.56C264.769 112.16 264.549 111.56 264.349 111.18C265.289 111.22 266.149 111.2 266.429 111.18C266.689 111.18 266.769 111.12 266.769 110.86V101.34ZM261.769 104.32H267.549V105.5H261.769V104.32ZM261.769 107.32H267.549V108.52H261.769V107.32ZM270.129 94.24H271.609V100.86C271.609 101.5 271.769 101.64 272.689 101.64C273.109 101.64 275.289 101.64 275.869 101.64C276.649 101.64 276.789 101.3 276.869 99.32C277.189 99.58 277.789 99.8 278.229 99.9C278.049 102.34 277.609 103 275.989 103C275.569 103 272.949 103 272.549 103C270.629 103 270.129 102.54 270.129 100.88V94.24ZM276.249 95.72L277.249 96.82C275.549 97.62 273.149 98.4 271.089 98.98C271.009 98.66 270.809 98.22 270.629 97.92C272.609 97.3 274.889 96.42 276.249 95.72ZM270.129 103.54H271.609V110.3C271.609 110.98 271.789 111.1 272.749 111.1C273.169 111.1 275.429 111.1 276.029 111.1C276.889 111.1 277.009 110.72 277.109 108.46C277.449 108.7 278.049 108.94 278.469 109.02C278.269 111.72 277.829 112.44 276.149 112.44C275.709 112.44 273.009 112.44 272.589 112.44C270.649 112.44 270.129 111.98 270.129 110.32V103.54ZM276.489 104.64L277.489 105.76C275.809 106.72 273.249 107.54 271.089 108.12C271.009 107.82 270.789 107.34 270.629 107.04C272.709 106.44 275.129 105.52 276.489 104.64ZM265.749 96.1L266.989 95.6C268.049 97 269.169 98.84 269.629 100.08L268.309 100.66C267.889 99.44 266.809 97.52 265.749 96.1ZM287.589 95.48C287.509 95.84 287.429 96.28 287.349 96.66C287.209 97.38 286.949 99.02 286.669 100.26C285.989 103.08 284.569 108.06 282.309 111.7L280.669 111.06C282.949 108 284.549 102.66 285.089 100.22C285.469 98.62 285.729 96.82 285.729 95.28L287.589 95.48ZM294.469 97.78C295.709 99.4 297.449 103.04 298.129 104.88L296.569 105.62C295.989 103.58 294.409 100.1 293.009 98.44L294.469 97.78ZM280.389 99.86C281.009 99.9 281.529 99.88 282.169 99.86C283.669 99.82 287.729 99.38 289.089 99.38C290.869 99.38 292.329 100.06 292.329 102.76C292.329 105.14 292.009 108.32 291.169 109.98C290.549 111.32 289.549 111.66 288.249 111.66C287.489 111.66 286.529 111.52 285.909 111.36L285.629 109.7C286.469 109.96 287.529 110.1 288.089 110.1C288.829 110.1 289.429 109.94 289.829 109.08C290.469 107.72 290.789 105.12 290.789 102.96C290.789 101.12 289.949 100.78 288.669 100.78C287.329 100.78 283.569 101.24 282.349 101.36C281.889 101.42 281.069 101.52 280.549 101.6L280.389 99.86ZM294.689 94.88C295.189 95.6 295.909 96.82 296.329 97.64L295.249 98.12C294.849 97.3 294.169 96.1 293.609 95.34L294.689 94.88ZM296.889 94.08C297.429 94.82 298.189 96.08 298.589 96.82L297.489 97.3C297.069 96.42 296.409 95.28 295.829 94.54L296.889 94.08ZM308.529 95.18C308.449 95.42 308.369 95.78 308.309 96.06C307.969 97.74 307.629 100.9 307.629 103.64C307.629 106.24 308.189 108.64 308.809 110.52L307.349 110.96C306.769 109.18 306.229 106.34 306.229 103.8C306.229 101.06 306.629 97.82 306.809 96.1C306.849 95.74 306.869 95.38 306.869 95.12L308.529 95.18ZM305.309 97.64C308.829 97.64 312.309 97.36 315.069 96.74L315.089 98.22C312.209 98.72 308.269 99.02 305.289 99.02C304.429 99.02 302.869 98.94 302.049 98.9L302.009 97.4C302.709 97.52 304.449 97.64 305.309 97.64ZM313.649 100C313.529 100.26 313.349 100.8 313.229 101.12C312.049 104.82 310.049 107.6 307.949 109.22C306.669 110.2 305.069 110.94 303.649 110.94C302.329 110.94 301.289 110.14 301.289 108.44C301.289 105.7 303.829 102.88 306.789 101.74C308.129 101.22 309.749 100.92 311.049 100.92C314.829 100.92 317.209 103.12 317.209 105.92C317.209 108.78 315.309 111.28 310.669 112.02L309.809 110.68C313.409 110.28 315.649 108.42 315.649 105.84C315.649 103.9 314.009 102.2 311.029 102.2C309.349 102.2 307.869 102.68 306.849 103.14C304.589 104.14 302.789 106.34 302.789 108.18C302.789 109 303.189 109.4 303.929 109.4C304.929 109.4 306.229 108.84 307.509 107.72C309.289 106.16 310.929 104 311.849 100.76C311.929 100.46 312.029 99.92 312.049 99.6L313.649 100ZM325.869 95.22C325.449 96.7 325.069 99.4 324.949 100.8C325.769 98.74 327.849 96.24 330.389 96.24C333.029 96.24 334.949 98.92 334.949 103.12C334.949 108.66 331.449 111.12 326.509 112.02L325.549 110.58C329.909 109.92 333.289 108.16 333.289 103.14C333.289 99.98 332.229 97.7 330.129 97.7C327.629 97.7 325.309 101.34 325.069 103.96C324.969 104.72 324.969 105.42 325.109 106.42L323.549 106.54C323.449 105.78 323.349 104.66 323.349 103.36C323.349 101.46 323.729 98.52 323.969 96.88C324.049 96.28 324.089 95.72 324.129 95.16L325.869 95.22ZM65.54 134.66H73.5V135.82H65.54V134.66ZM63.68 124.78H75.56V125.92H63.68V124.78ZM64.16 127.2H75.06V128.3H64.16V127.2ZM63.06 129.7H76.14V130.84H63.06V129.7ZM65.54 137.34H73.56V138.46H65.54V137.34ZM64.52 132.02H73.5V133.18H65.92V141.58H64.52V132.02ZM73.14 132.02H74.58V139.92C74.58 140.68 74.42 141.08 73.86 141.3C73.3 141.52 72.4 141.54 70.98 141.52C70.92 141.16 70.72 140.6 70.54 140.22C71.54 140.26 72.5 140.26 72.78 140.24C73.06 140.24 73.14 140.16 73.14 139.9V132.02ZM68.8 123.2H70.28V130.06H68.8V123.2ZM60.02 123.2H61.4V141.58H60.02V123.2ZM58.44 127.06L59.56 127.22C59.5 128.78 59.16 131.1 58.7 132.6L57.54 132.22C58 130.84 58.32 128.64 58.44 127.06ZM61.58 126.54L62.58 126.14C63.02 127.06 63.5 128.24 63.68 128.98L62.64 129.48C62.44 128.72 61.98 127.48 61.58 126.54ZM88.12 130.94H94.66V132.18H88.12V130.94ZM87.36 124.14H94.52V125.48H88.74V141.62H87.36V124.14ZM93.8 124.14H95.2V128C95.2 128.74 95.04 129.14 94.42 129.36C93.8 129.58 92.8 129.6 91.26 129.6C91.2 129.2 91 128.66 90.8 128.28C92.04 128.32 93.08 128.32 93.4 128.3C93.72 128.28 93.8 128.2 93.8 127.98V124.14ZM90.08 131.76C91.16 135.5 93.42 138.92 96.42 140.38C96.08 140.68 95.62 141.22 95.38 141.6C92.3 139.86 90.08 136.22 88.9 132.06L90.08 131.76ZM94.2 130.94H94.48L94.74 130.86L95.66 131.2C94.88 135.54 92.9 139.48 89.7 141.64C89.48 141.3 89.04 140.88 88.7 140.62C91.7 138.66 93.58 134.92 94.2 131.26V130.94ZM78.54 125.26H85.96V126.56H78.54V125.26ZM78.3 136.2H86.22V137.5H78.3V136.2ZM77.82 128.56H86.72V129.86H77.82V128.56ZM78.1 132.72H86.48V134.02H78.1V132.72ZM81.62 123.24H83.02V129.02H81.62V123.24ZM81.62 133.26H83.02V141.56H81.62V133.26ZM84.32 129.78L85.6 130.12C85.2 131.08 84.82 132.12 84.44 132.82L83.32 132.48C83.66 131.74 84.1 130.56 84.32 129.78ZM79.22 130.1L80.36 129.82C80.8 130.66 81.2 131.8 81.3 132.5L80.1 132.84C80 132.12 79.62 130.98 79.22 130.1ZM108.26 126.36C108 128.44 107.6 130.78 106.98 132.92C105.76 137.02 104.16 139.14 102.32 139.14C100.52 139.14 98.74 137.1 98.74 133.78C98.74 129.44 102.6 125.66 107.5 125.66C112.18 125.66 115.16 128.96 115.16 133.02C115.16 137.2 112.4 140 107.64 140.62L106.72 139.14C107.36 139.08 107.96 139 108.44 138.9C111 138.32 113.52 136.4 113.52 132.94C113.52 129.74 111.3 127.1 107.46 127.1C103.06 127.1 100.32 130.72 100.32 133.66C100.32 136.18 101.46 137.3 102.36 137.3C103.3 137.3 104.38 135.94 105.4 132.56C105.98 130.66 106.4 128.4 106.6 126.32L108.26 126.36ZM118.28 124.28H135.7V125.64H118.28V124.28ZM126.34 124.86H127.9V132.62C127.9 136.48 126.84 139.92 118.82 141.62C118.66 141.3 118.24 140.66 117.92 140.3C125.72 138.86 126.34 135.92 126.34 132.6V124.86ZM121.54 131.78V133.82H132.94V131.78H121.54ZM121.54 128.58V130.58H132.94V128.58H121.54ZM120.12 127.32H134.46V135.08H120.12V127.32ZM122.04 135.24C124.58 139.2 129.14 139.88 136.36 140.06C136.1 140.42 135.8 141.06 135.72 141.54C128.36 141.24 123.44 140.3 120.76 135.76L122.04 135.24ZM148.74 129.96H156.18V131.36H148.74V129.96ZM138.22 125.3H147.04V126.58H138.22V125.3ZM138 133.24H147.14V134.54H138V133.24ZM137.94 129.88H147.28V131.16H137.94V129.88ZM152.46 130.52H153.92V141.5H152.46V130.52ZM141.92 123.28H143.38V125.96H141.92V123.28ZM141.92 130.92H143.38V141.58H141.92V130.92ZM148.02 124.84L149.86 125.4C149.84 125.56 149.72 125.64 149.44 125.68V131.86C149.44 134.86 149.08 138.92 146.26 141.7C146.08 141.36 145.54 140.86 145.18 140.66C147.74 138.14 148.02 134.68 148.02 131.84V124.84ZM154.72 123.44L155.92 124.54C154.04 125.38 151.24 126.06 148.84 126.48C148.76 126.16 148.56 125.64 148.38 125.34C150.62 124.86 153.26 124.16 154.72 123.44ZM143.24 134.92C143.88 135.36 146.06 137.14 146.56 137.6L145.68 138.72C145.04 137.98 143.16 136.22 142.42 135.6L143.24 134.92ZM139.42 126.94L140.6 126.68C141.02 127.56 141.36 128.74 141.46 129.5L140.2 129.84C140.14 129.06 139.82 127.86 139.42 126.94ZM144.54 126.64L145.9 126.94C145.52 127.94 145.1 129.06 144.74 129.8L143.54 129.52C143.9 128.72 144.32 127.48 144.54 126.64ZM141.94 133.9L143.02 134.32C142 136.54 140.16 138.9 138.56 140.14C138.32 139.8 137.88 139.32 137.54 139.08C139.16 138.02 140.98 135.86 141.94 133.9ZM165.48 124.48C165.4 124.84 165.32 125.28 165.24 125.66C165.1 126.38 164.84 128.02 164.56 129.26C163.88 132.08 162.46 137.06 160.2 140.7L158.56 140.06C160.84 137 162.44 131.66 162.98 129.22C163.36 127.62 163.62 125.82 163.62 124.28L165.48 124.48ZM172.36 126.78C173.6 128.4 175.34 132.04 176.02 133.88L174.46 134.62C173.88 132.58 172.3 129.1 170.9 127.44L172.36 126.78ZM158.28 128.86C158.9 128.9 159.42 128.88 160.06 128.86C161.56 128.82 165.62 128.38 166.98 128.38C168.76 128.38 170.22 129.06 170.22 131.76C170.22 134.14 169.9 137.32 169.06 138.98C168.44 140.32 167.44 140.66 166.14 140.66C165.38 140.66 164.42 140.52 163.8 140.36L163.52 138.7C164.36 138.96 165.42 139.1 165.98 139.1C166.72 139.1 167.32 138.94 167.72 138.08C168.36 136.72 168.68 134.12 168.68 131.96C168.68 130.12 167.84 129.78 166.56 129.78C165.22 129.78 161.46 130.24 160.24 130.36C159.78 130.42 158.96 130.52 158.44 130.6L158.28 128.86ZM172.58 123.88C173.08 124.6 173.8 125.82 174.22 126.64L173.14 127.12C172.74 126.3 172.06 125.1 171.5 124.34L172.58 123.88ZM174.78 123.08C175.32 123.82 176.08 125.08 176.48 125.82L175.38 126.3C174.96 125.42 174.3 124.28 173.72 123.54L174.78 123.08ZM179.12 128.3H180.5V141.6H179.12V128.3ZM183.3 134.46H184.66V140.68H183.3V134.46ZM183.92 134.46H190.74V139.96H183.92V139H189.4V135.44H183.92V134.46ZM179.82 128.3H186.14V133.46H179.82V132.46H184.78V129.3H179.82V128.3ZM179.88 130.4H185.26V131.34H179.88V130.4ZM183.94 136.72H190.04V137.66H183.94V136.72ZM188.66 130.4H194.24V131.34H188.66V130.4ZM194.06 128.3V129.3H189.22V132.46H194.06V133.46H187.84V128.3H194.06ZM193.7 128.3H195.1V139.88C195.1 140.72 194.92 141.14 194.34 141.36C193.76 141.58 192.76 141.6 191.26 141.6C191.2 141.22 190.98 140.64 190.8 140.24C191.92 140.3 192.96 140.28 193.28 140.28C193.6 140.26 193.7 140.16 193.7 139.88V128.3ZM180.26 124.76H186.72V125.94H180.26V124.76ZM188.08 124.76H195.94V125.94H188.08V124.76ZM180.64 123.12L182.06 123.48C181.32 125.24 180.14 126.96 178.98 128.08C178.7 127.86 178.1 127.44 177.74 127.26C178.94 126.22 180.02 124.68 180.64 123.12ZM188.58 123.12L190.02 123.46C189.3 125.22 188 126.86 186.74 127.92C186.44 127.7 185.8 127.34 185.44 127.16C186.76 126.18 187.96 124.7 188.58 123.12ZM181.38 125.72L182.64 125.38C183.1 126.06 183.58 127 183.78 127.6L182.46 127.98C182.28 127.38 181.82 126.42 181.38 125.72ZM189.94 125.7L191.22 125.3C191.84 125.98 192.52 126.94 192.82 127.6L191.5 128.04C191.22 127.4 190.56 126.42 189.94 125.7ZM206.16 127.44H207.7V141.62H206.16V127.44ZM201.42 131.38V133.52H212.68V131.38H201.42ZM201.42 128.02V130.16H212.68V128.02H201.42ZM199.96 126.76H214.22V134.8H199.96V126.76ZM198.06 136.62H215.96V138.02H198.06V136.62ZM199.92 124L201.2 123.4C201.96 124.26 202.84 125.44 203.24 126.22L201.9 126.92C201.52 126.12 200.68 124.88 199.92 124ZM205 123.7L206.34 123.18C207 124.14 207.72 125.42 208 126.28L206.58 126.84C206.32 126 205.66 124.68 205 123.7ZM212.54 123.24L214.16 123.76C213.36 125.04 212.38 126.46 211.6 127.38L210.3 126.9C211.08 125.92 212.02 124.34 212.54 123.24ZM226.34 135.18L225.94 127.42L225.88 125.04H228.1L228.04 127.42L227.64 135.18H226.34ZM227 140.1C226.28 140.1 225.7 139.6 225.7 138.8C225.7 138 226.28 137.46 227 137.46C227.7 137.46 228.28 138 228.28 138.8C228.28 139.6 227.7 140.1 227 140.1Z" fill="black"/>
</g>
<defs>
<filter id="filter0_dd_102_174" x="0.562531" y="0" width="377.594" height="236.971" filterUnits="userSpaceOnUse" color-interpolation-filters="sRGB">
<feFlood flood-opacity="0" result="BackgroundImageFix"/>
<feColorMatrix in="SourceAlpha" type="matrix" values="0 0 0 0 0 0 0 0 0 0 0 0 0 0 0 0 0 0 127 0" result="hardAlpha"/>
<feOffset dy="1"/>
<feGaussianBlur stdDeviation="2"/>
<feComposite in2="hardAlpha" operator="out"/>
<feColorMatrix type="matrix" values="0 0 0 0 0.0470588 0 0 0 0 0.0470588 0 0 0 0 0.0509804 0 0 0 0.05 0"/>
<feBlend mode="normal" in2="BackgroundImageFix" result="effect1_dropShadow_102_174"/>
<feColorMatrix in="SourceAlpha" type="matrix" values="0 0 0 0 0 0 0 0 0 0 0 0 0 0 0 0 0 0 127 0" result="hardAlpha"/>
<feOffset dy="1"/>
<feGaussianBlur stdDeviation="2"/>
<feComposite in2="hardAlpha" operator="out"/>
<feColorMatrix type="matrix" values="0 0 0 0 0.0470588 0 0 0 0 0.0470588 0 0 0 0 0.0509804 0 0 0 0.1 0"/>
<feBlend mode="normal" in2="effect1_dropShadow_102_174" result="effect2_dropShadow_102_174"/>
<feBlend mode="normal" in="SourceGraphic" in2="effect2_dropShadow_102_174" result="shape"/>
</filter>
</defs>
</svg>
