<svg width="379" height="237" viewBox="0 0 379 237" fill="none" xmlns="http://www.w3.org/2000/svg">
<g filter="url(#filter0_dd_102_164)">
<mask id="path-1-inside-1_102_164" fill="white">
<path d="M22 18.1875C22 9.79967 28.7997 3 37.1875 3L358.969 3C367.357 3 374.156 9.79968 374.156 18.1875L374.156 216.783C374.156 225.171 367.357 231.971 358.969 231.971L37.1875 231.971C28.7997 231.971 22 225.171 22 216.783L22 18.1875Z"/>
</mask>
<path d="M22 18.1875C22 9.79967 28.7997 3 37.1875 3L358.969 3C367.357 3 374.156 9.79968 374.156 18.1875L374.156 216.783C374.156 225.171 367.357 231.971 358.969 231.971L37.1875 231.971C28.7997 231.971 22 225.171 22 216.783L22 18.1875Z" fill="white" shape-rendering="crispEdges"/>
<path d="M37.1875 5.84766L358.969 5.84766L358.969 0.152343L37.1875 0.152344L37.1875 5.84766ZM371.309 18.1875L371.309 216.783L377.004 216.783L377.004 18.1875L371.309 18.1875ZM358.969 229.123L37.1875 229.123L37.1875 234.818L358.969 234.818L358.969 229.123ZM24.8477 216.783L24.8477 18.1875L19.1523 18.1875L19.1523 216.783L24.8477 216.783ZM37.1875 229.123C30.3724 229.123 24.8477 223.598 24.8477 216.783L19.1523 216.783C19.1523 226.744 27.227 234.818 37.1875 234.818L37.1875 229.123ZM371.309 216.783C371.309 223.598 365.784 229.123 358.969 229.123L358.969 234.818C368.93 234.818 377.004 226.744 377.004 216.783L371.309 216.783ZM358.969 5.84766C365.784 5.84766 371.309 11.3724 371.309 18.1875L377.004 18.1875C377.004 8.22695 368.93 0.152343 358.969 0.152343L358.969 5.84766ZM37.1875 0.152344C27.227 0.152344 19.1523 8.22695 19.1523 18.1875L24.8477 18.1875C24.8477 11.3724 30.3724 5.84766 37.1875 5.84766L37.1875 0.152344Z" fill="#D9D9D9" mask="url(#path-1-inside-1_102_164)"/>
<path d="M42.8291 113.736L28.2814 131.267L10.75 116.719L25.2977 99.1879L42.8291 113.736Z" fill="white"/>
<path fill-rule="evenodd" clip-rule="evenodd" d="M19.1102 100.313L4.56254 117.844L22.0939 132.392L23.9124 130.201L8.57242 117.471L21.3016 102.131L19.1102 100.313Z" fill="#D9D9D9"/>
<path d="M94.7273 118.118C91.0273 118.118 88.4673 115.158 88.4673 110.458C88.4673 105.758 91.0273 102.918 94.7273 102.918C98.4073 102.918 100.967 105.778 100.967 110.458C100.967 115.158 98.4073 118.118 94.7273 118.118ZM94.7273 116.578C97.3473 116.578 99.0873 114.218 99.0873 110.458C99.0873 106.798 97.3473 104.538 94.7273 104.538C92.0873 104.538 90.3673 106.798 90.3673 110.458C90.3673 114.218 92.0873 116.578 94.7273 116.578ZM99.2073 121.538C96.4073 121.538 94.5073 119.938 93.7273 117.798L95.6473 117.658C96.2273 119.198 97.6673 119.978 99.4073 119.978C100.067 119.978 100.547 119.898 100.947 119.758L101.307 121.198C100.847 121.378 100.087 121.538 99.2073 121.538ZM107.151 118.118C104.871 118.118 103.831 116.638 103.831 113.858V106.978H105.651V113.638C105.651 115.658 106.271 116.518 107.711 116.518C108.811 116.518 109.611 115.978 110.631 114.698V106.978H112.451V117.838H110.951L110.791 116.138H110.751C109.731 117.318 108.651 118.118 107.151 118.118ZM116.139 117.838V106.978H117.959V117.838H116.139ZM117.059 104.738C116.339 104.738 115.839 104.278 115.839 103.518C115.839 102.818 116.339 102.358 117.059 102.358C117.759 102.358 118.279 102.818 118.279 103.518C118.279 104.278 117.759 104.738 117.059 104.738ZM125.907 118.118C123.027 118.118 120.827 116.018 120.827 112.438C120.827 108.798 123.267 106.718 126.047 106.718C127.467 106.718 128.467 107.298 129.227 107.998L128.307 109.198C127.667 108.618 126.987 108.238 126.147 108.238C124.147 108.238 122.707 109.918 122.707 112.438C122.707 114.918 124.087 116.598 126.087 116.598C127.067 116.598 127.967 116.118 128.647 115.518L129.427 116.738C128.467 117.598 127.207 118.118 125.907 118.118ZM131.843 117.838V101.938H133.643V112.718H133.703L138.323 106.978H140.363L136.743 111.358L140.823 117.838H138.843L135.663 112.598L133.643 114.978V117.838H131.843ZM153.05 118.118C149.39 118.118 146.67 115.278 146.67 110.518C146.67 105.798 149.45 102.918 153.17 102.918C154.95 102.918 156.33 103.778 157.19 104.718L156.17 105.918C155.41 105.098 154.43 104.538 153.19 104.538C150.41 104.538 148.57 106.818 148.57 110.478C148.57 114.178 150.33 116.478 153.13 116.478C154.51 116.478 155.59 115.878 156.53 114.838L157.53 115.998C156.37 117.358 154.95 118.118 153.05 118.118ZM162.604 118.118C160.784 118.118 159.424 116.978 159.424 115.018C159.424 112.658 161.464 111.478 166.084 110.958C166.084 109.558 165.644 108.218 163.864 108.218C162.584 108.218 161.444 108.818 160.604 109.398L159.884 108.118C160.884 107.478 162.404 106.718 164.144 106.718C166.804 106.718 167.924 108.478 167.924 111.178V117.838H166.424L166.264 116.558H166.184C165.164 117.418 163.944 118.118 162.604 118.118ZM163.104 116.638C164.164 116.638 165.044 116.138 166.084 115.198V112.178C162.424 112.598 161.204 113.498 161.204 114.898C161.204 116.138 162.044 116.638 163.104 116.638ZM171.374 117.838V106.978H172.854L173.034 108.958H173.094C173.834 107.578 174.954 106.718 176.174 106.718C176.654 106.718 176.974 106.778 177.334 106.938L176.994 108.538C176.614 108.418 176.374 108.358 175.934 108.358C175.034 108.358 173.914 109.018 173.194 110.878V117.838H171.374ZM182.534 118.118C179.814 118.118 178.054 116.058 178.054 112.438C178.054 108.898 180.294 106.718 182.774 106.718C184.034 106.718 184.874 107.178 185.814 107.978L185.734 106.098V101.938H187.554V117.838H186.054L185.894 116.558H185.854C184.994 117.418 183.854 118.118 182.534 118.118ZM182.934 116.578C183.954 116.578 184.834 116.078 185.734 115.098V109.398C184.814 108.558 183.974 108.238 183.074 108.238C181.334 108.238 179.954 109.938 179.954 112.418C179.954 115.018 181.034 116.578 182.934 116.578ZM191.337 105.238C192.077 105.318 192.937 105.358 193.797 105.358C195.957 105.358 198.477 105.098 200.777 104.338L200.817 105.818C198.857 106.358 196.237 106.798 193.797 106.778C193.057 106.778 192.197 106.758 191.457 106.738L191.337 105.238ZM198.437 101.978C198.177 102.958 197.757 104.838 197.277 106.258C196.317 109.138 194.477 112.778 192.817 115.018L191.277 114.218C193.057 112.138 194.917 108.578 195.737 106.218C196.177 104.958 196.617 103.198 196.677 101.798L198.437 101.978ZM203.157 108.158C203.097 108.978 203.097 109.578 203.117 110.298C203.157 111.598 203.337 114.638 203.337 115.958C203.337 117.558 202.317 118.858 199.837 118.858C197.637 118.858 195.857 117.978 195.857 115.978C195.857 114.138 197.597 112.978 199.837 112.978C203.197 112.978 205.777 114.658 207.417 116.078L206.577 117.438C205.037 116.038 202.737 114.258 199.797 114.258C198.317 114.258 197.317 114.938 197.317 115.858C197.317 116.778 198.097 117.418 199.657 117.418C201.317 117.418 201.877 116.538 201.877 115.458C201.877 113.938 201.657 110.358 201.577 108.158H203.157ZM207.157 108.678C206.077 107.758 203.897 106.538 202.577 105.918L203.377 104.718C204.837 105.338 207.097 106.638 208.057 107.358L207.157 108.678ZM216.097 102.158C217.817 102.718 222.077 103.538 223.857 103.718L223.477 105.238C221.557 104.978 217.237 104.098 215.697 103.698L216.097 102.158ZM215.657 105.818C215.397 107.178 215.037 110.138 214.837 111.438C216.757 109.758 218.957 108.978 221.357 108.978C224.417 108.978 226.457 110.818 226.457 113.178C226.457 116.738 223.277 119.158 215.857 118.538L215.377 116.918C221.697 117.678 224.777 115.858 224.777 113.118C224.777 111.538 223.277 110.398 221.237 110.398C218.617 110.398 216.457 111.378 215.057 113.078C214.757 113.418 214.577 113.738 214.457 114.058L212.957 113.698C213.357 111.878 213.857 107.678 213.977 105.598L215.657 105.818ZM230.977 102.138H247.897V106.518H246.337V103.538H232.457V106.518H230.977V102.138ZM235.617 106.058H244.957V107.378H235.617V106.058ZM234.937 109.798H243.597V111.138H234.937V109.798ZM230.497 113.498H248.377V114.898H230.497V113.498ZM243.217 109.798H244.717C244.717 109.798 244.677 110.258 244.657 110.478C244.177 115.878 243.697 117.998 242.897 118.798C242.417 119.258 241.957 119.398 241.197 119.438C240.537 119.478 239.237 119.458 237.937 119.378C237.897 118.958 237.697 118.358 237.437 117.958C238.817 118.098 240.197 118.098 240.697 118.098C241.157 118.098 241.397 118.078 241.637 117.878C242.317 117.298 242.777 115.158 243.197 110.038L243.217 109.798ZM235.397 103.678L236.897 103.838C236.417 106.418 235.677 109.798 235.137 111.798L233.617 111.658C234.197 109.618 234.957 106.198 235.397 103.678ZM261.257 117.018L262.237 116.058C264.477 116.818 266.917 117.778 268.417 118.478L267.157 119.478C265.777 118.778 263.517 117.818 261.257 117.018ZM250.537 114.418H268.297V115.698H250.537V114.418ZM251.117 102.718H267.797V104.018H251.117V102.718ZM258.577 101.038H260.157V105.938H258.577V101.038ZM254.997 108.618V109.958H264.137V108.618H254.997ZM254.997 110.898V112.258H264.137V110.898H254.997ZM254.997 106.338V107.638H264.137V106.338H254.997ZM253.557 105.338H265.657V113.258H253.557V105.338ZM256.317 116.078L257.657 116.938C256.057 117.938 253.557 118.938 251.557 119.478C251.337 119.178 250.857 118.718 250.537 118.438C252.557 117.898 255.057 116.938 256.317 116.078ZM270.977 104.678C271.737 104.658 272.377 104.618 272.777 104.578C274.057 104.438 277.837 104.078 281.517 103.758C283.717 103.578 285.577 103.458 286.917 103.418L286.937 105.018C285.777 104.998 284.037 105.038 283.017 105.318C280.157 106.238 278.417 109.298 278.417 111.658C278.417 115.558 282.077 116.818 285.317 116.938L284.737 118.578C281.037 118.438 276.837 116.478 276.837 111.998C276.837 108.898 278.737 106.338 280.557 105.258C278.417 105.478 273.317 105.978 271.157 106.438L270.977 104.678ZM284.037 107.458C284.497 108.118 285.257 109.358 285.697 110.258L284.657 110.718C284.197 109.758 283.637 108.738 283.037 107.898L284.037 107.458ZM286.217 106.618C286.717 107.278 287.497 108.498 287.957 109.378L286.937 109.878C286.457 108.918 285.857 107.918 285.237 107.078L286.217 106.618ZM300.677 104.198C300.417 106.278 300.017 108.618 299.397 110.758C298.177 114.858 296.577 116.978 294.737 116.978C292.937 116.978 291.157 114.938 291.157 111.618C291.157 107.278 295.017 103.498 299.917 103.498C304.597 103.498 307.577 106.798 307.577 110.858C307.577 115.038 304.817 117.838 300.057 118.458L299.137 116.978C299.777 116.918 300.377 116.838 300.857 116.738C303.417 116.158 305.937 114.238 305.937 110.778C305.937 107.578 303.717 104.938 299.877 104.938C295.477 104.938 292.737 108.558 292.737 111.498C292.737 114.018 293.877 115.138 294.777 115.138C295.717 115.138 296.797 113.778 297.817 110.398C298.397 108.498 298.817 106.238 299.017 104.158L300.677 104.198ZM98.3473 141.618H104.107V142.778H97.5273L98.3473 141.618ZM103.647 141.618H103.967L104.267 141.558L105.147 142.078C103.367 145.798 99.3673 147.618 94.9673 148.478C94.8273 148.118 94.4473 147.478 94.1873 147.178C98.4273 146.498 102.187 144.938 103.647 141.858V141.618ZM98.2073 142.418C99.6873 144.898 102.907 146.558 106.787 147.138C106.447 147.458 106.047 148.058 105.847 148.458C101.867 147.678 98.6473 145.778 96.9473 142.818L98.2073 142.418ZM97.9073 137.958V139.318H103.747V137.958H97.9073ZM97.9073 135.658V136.978H103.747V135.658H97.9073ZM96.5273 134.618H105.167V140.338H96.5273V134.618ZM97.1073 132.058H106.387V133.338H97.1073V132.058ZM97.5673 130.038L99.0073 130.278C98.2473 132.138 97.1873 134.258 95.5473 135.978C95.2873 135.678 94.8073 135.278 94.4673 135.118C95.9873 133.598 97.0273 131.598 97.5673 130.038ZM99.1073 139.898L100.587 140.178C99.4473 141.938 97.7273 143.718 95.2873 145.118C95.0673 144.798 94.6073 144.358 94.2873 144.138C96.5873 142.938 98.2273 141.298 99.1073 139.898ZM90.9073 139.858L92.2673 138.218V148.458H90.9073V139.858ZM88.3673 133.858H93.8073V135.178H88.3673V133.858ZM90.8473 130.158H92.2073V134.578H90.8473V130.158ZM92.0873 138.318C92.6073 138.878 94.5073 141.218 94.9273 141.798L94.0473 142.818C93.5273 141.878 91.9473 139.718 91.3273 138.958L92.0873 138.318ZM93.2873 133.858H93.5673L93.8273 133.778L94.6073 134.278C93.4073 137.938 90.9673 141.478 88.6673 143.478C88.5073 143.118 88.1273 142.458 87.8873 142.198C90.0473 140.458 92.3073 137.218 93.2873 134.158V133.858ZM94.4273 137.498L95.3073 138.138C94.7673 138.998 94.1273 139.958 93.6073 140.578L92.9073 140.038C93.3873 139.358 94.0673 138.238 94.4273 137.498ZM108.087 140.718H117.907V141.978H108.087V140.718ZM108.207 133.738H117.847V134.958H108.207V133.738ZM111.807 138.998L113.207 139.298C112.307 141.258 111.047 143.698 110.127 145.278L108.807 144.818C109.707 143.298 110.967 140.838 111.807 138.998ZM114.807 141.458L116.207 141.638C115.527 145.538 113.427 147.458 108.807 148.438C108.707 148.038 108.407 147.498 108.127 147.198C112.307 146.498 114.187 144.858 114.807 141.458ZM116.067 130.438L117.347 130.998C116.767 131.918 116.107 132.918 115.547 133.598L114.547 133.098C115.047 132.378 115.707 131.218 116.067 130.438ZM112.347 130.038H113.727V139.238H112.347V130.038ZM108.947 130.998L110.087 130.518C110.647 131.318 111.187 132.378 111.387 133.098L110.207 133.638C110.027 132.918 109.507 131.818 108.947 130.998ZM112.367 134.278L113.387 134.878C112.407 136.558 110.527 138.338 108.807 139.278C108.627 138.938 108.267 138.438 107.987 138.138C109.647 137.418 111.487 135.818 112.367 134.278ZM113.567 134.978C114.287 135.358 116.727 136.898 117.307 137.318L116.487 138.418C115.767 137.738 113.687 136.178 112.847 135.618L113.567 134.978ZM119.367 133.738H126.487V135.138H119.367V133.738ZM119.867 130.038L121.387 130.258C120.727 134.178 119.547 137.758 117.787 140.098C117.547 139.818 116.927 139.318 116.567 139.078C118.267 136.958 119.307 133.578 119.867 130.038ZM123.807 134.538L125.327 134.698C124.367 141.598 122.247 145.898 117.207 148.498C117.047 148.138 116.607 147.478 116.307 147.158C121.067 144.918 122.987 140.878 123.807 134.538ZM120.167 134.978C121.047 140.478 122.967 145.198 126.687 147.158C126.327 147.458 125.847 148.038 125.627 148.438C121.707 146.138 119.807 141.258 118.807 135.198L120.167 134.978ZM110.007 144.538L110.807 143.518C113.207 144.438 115.687 145.758 117.127 146.858L116.087 147.938C114.707 146.818 112.327 145.478 110.007 144.538ZM137.967 133.898H146.307V135.318H137.967V133.898ZM138.247 134.698C139.107 139.518 141.167 144.878 146.667 147.138C146.347 147.438 145.847 148.098 145.627 148.518C140.067 145.958 138.027 140.398 137.127 135.598L138.247 134.698ZM143.467 134.378L145.087 134.638C143.967 140.778 141.727 145.858 135.627 148.478C135.427 148.158 134.987 147.578 134.707 147.278C140.527 144.878 142.587 140.098 143.467 134.378ZM138.667 130.018L140.207 130.338C139.347 133.998 137.907 137.338 135.887 139.538C135.707 139.198 135.167 138.498 134.847 138.178C136.707 136.298 137.967 133.278 138.667 130.018ZM128.327 134.338H135.607V135.778H128.327V134.338ZM131.447 130.038H132.887V148.418H131.447V130.038ZM131.367 135.218L132.327 135.558C131.667 138.898 130.187 143.018 128.647 145.118C128.467 144.698 128.087 144.118 127.847 143.778C129.287 141.858 130.747 138.238 131.367 135.218ZM132.727 137.518C133.347 138.198 135.707 141.178 136.207 141.898L135.287 143.118C134.647 141.938 132.727 139.198 131.987 138.238L132.727 137.518ZM155.287 137.738H166.247V141.258H164.847V138.958H156.627V141.258H155.287V137.738ZM161.687 140.278H163.087V146.298C163.087 146.798 163.147 146.858 163.567 146.858C163.767 146.858 164.667 146.858 164.907 146.858C165.327 146.858 165.407 146.538 165.467 144.218C165.747 144.458 166.347 144.698 166.727 144.798C166.607 147.518 166.247 148.218 165.047 148.218C164.767 148.218 163.647 148.218 163.387 148.218C162.007 148.218 161.687 147.778 161.687 146.318V140.278ZM158.227 140.278H159.647C159.467 144.558 158.827 147.078 155.267 148.478C155.107 148.138 154.687 147.578 154.387 147.298C157.587 146.138 158.087 144.038 158.227 140.278ZM155.367 131.858H166.167V133.118H155.367V131.858ZM156.007 134.978H165.587V136.258H156.007V134.978ZM159.927 130.038H161.407V135.638H159.927V130.038ZM148.927 136.098H154.327V137.298H148.927V136.098ZM149.027 130.758H154.247V131.958H149.027V130.758ZM148.927 138.778H154.327V139.978H148.927V138.778ZM148.067 133.378H154.887V134.618H148.067V133.378ZM149.627 141.478H154.327V147.298H149.627V146.058H153.067V142.718H149.627V141.478ZM148.887 141.478H150.167V148.238H148.887V141.478ZM171.767 132.178C172.267 132.218 172.847 132.238 173.267 132.238C174.327 132.238 176.947 132.118 177.787 132.038C178.167 132.018 178.507 131.938 178.787 131.838L179.787 132.638C179.587 132.858 179.427 133.058 179.267 133.318C178.627 134.358 177.527 136.918 176.607 138.978C175.807 140.738 174.707 143.458 173.847 144.698C173.147 145.718 172.367 146.098 171.327 146.098C169.847 146.098 168.747 145.018 168.747 143.358C168.747 140.338 171.587 138.038 175.647 138.038C180.147 138.038 184.107 140.438 186.267 141.978L185.527 143.678C183.187 141.658 179.527 139.438 175.407 139.438C172.087 139.438 170.187 141.298 170.187 143.138C170.187 144.038 170.767 144.498 171.387 144.498C171.847 144.498 172.187 144.338 172.607 143.798C173.427 142.718 174.327 140.398 175.087 138.718C175.887 136.978 176.787 134.918 177.467 133.498C176.667 133.518 174.227 133.638 173.327 133.678C172.887 133.698 172.307 133.758 171.827 133.818L171.767 132.178ZM184.267 136.558C183.987 142.258 182.827 145.718 178.167 148.058L176.847 146.958C181.547 144.978 182.407 141.198 182.627 138.238C182.667 137.638 182.687 136.958 182.627 136.378L184.267 136.558ZM195.407 131.058H199.587V132.478H195.407V131.058ZM198.667 131.058H200.327C200.807 137.198 202.347 141.958 206.387 144.038C206.027 144.278 205.487 144.818 205.187 145.158C201.127 142.818 199.547 137.978 199.007 131.798H198.667V131.058ZM198.747 134.938L200.287 135.158C199.347 139.698 197.487 143.058 194.507 145.178C194.267 144.898 193.667 144.318 193.327 144.058C196.267 142.198 197.967 139.038 198.747 134.938ZM192.527 137.938V145.018H191.067V139.338H188.267V137.938H192.527ZM192.527 144.358C193.467 145.838 195.247 146.518 197.547 146.618C199.727 146.698 204.227 146.638 206.587 146.478C206.427 146.838 206.167 147.558 206.107 148.018C203.907 148.098 199.767 148.138 197.547 148.058C194.947 147.958 193.147 147.258 191.867 145.678C190.907 146.538 189.887 147.398 188.807 148.278L188.007 146.738C188.967 146.098 190.147 145.218 191.167 144.358H192.527ZM188.487 131.438L189.587 130.538C190.907 131.378 192.407 132.678 193.107 133.658L191.927 134.638C191.287 133.678 189.787 132.318 188.487 131.438ZM211.767 132.178C212.267 132.218 212.847 132.238 213.267 132.238C214.327 132.238 216.947 132.118 217.787 132.038C218.167 132.018 218.507 131.938 218.787 131.838L219.787 132.638C219.587 132.858 219.427 133.058 219.267 133.318C218.627 134.358 217.527 136.918 216.607 138.978C215.807 140.738 214.707 143.458 213.847 144.698C213.147 145.718 212.367 146.098 211.327 146.098C209.847 146.098 208.747 145.018 208.747 143.358C208.747 140.338 211.587 138.038 215.647 138.038C220.147 138.038 224.107 140.438 226.267 141.978L225.527 143.678C223.187 141.658 219.527 139.438 215.407 139.438C212.087 139.438 210.187 141.298 210.187 143.138C210.187 144.038 210.767 144.498 211.387 144.498C211.847 144.498 212.187 144.338 212.607 143.798C213.427 142.718 214.327 140.398 215.087 138.718C215.887 136.978 216.787 134.918 217.467 133.498C216.667 133.518 214.227 133.638 213.327 133.678C212.887 133.698 212.307 133.758 211.827 133.818L211.767 132.178ZM224.267 136.558C223.987 142.258 222.827 145.718 218.167 148.058L216.847 146.958C221.547 144.978 222.407 141.198 222.627 138.238C222.667 137.638 222.687 136.958 222.627 136.378L224.267 136.558ZM235.787 131.318C235.707 131.678 235.627 132.118 235.547 132.498C235.407 133.218 235.147 134.858 234.867 136.098C234.187 138.918 232.767 143.898 230.507 147.538L228.867 146.898C231.147 143.838 232.747 138.498 233.287 136.058C233.667 134.458 233.927 132.658 233.927 131.118L235.787 131.318ZM242.667 133.618C243.907 135.238 245.647 138.878 246.327 140.718L244.767 141.458C244.187 139.418 242.607 135.938 241.207 134.278L242.667 133.618ZM228.587 135.698C229.207 135.738 229.727 135.718 230.367 135.698C231.867 135.658 235.927 135.218 237.287 135.218C239.067 135.218 240.527 135.898 240.527 138.598C240.527 140.978 240.207 144.158 239.367 145.818C238.747 147.158 237.747 147.498 236.447 147.498C235.687 147.498 234.727 147.358 234.107 147.198L233.827 145.538C234.667 145.798 235.727 145.938 236.287 145.938C237.027 145.938 237.627 145.778 238.027 144.918C238.667 143.558 238.987 140.958 238.987 138.798C238.987 136.958 238.147 136.618 236.867 136.618C235.527 136.618 231.767 137.078 230.547 137.198C230.087 137.258 229.267 137.358 228.747 137.438L228.587 135.698ZM242.887 130.718C243.387 131.438 244.107 132.658 244.527 133.478L243.447 133.958C243.047 133.138 242.367 131.938 241.807 131.178L242.887 130.718ZM245.087 129.918C245.627 130.658 246.387 131.918 246.787 132.658L245.687 133.138C245.267 132.258 244.607 131.118 244.027 130.378L245.087 129.918ZM262.227 131.918H263.787V146.298C263.787 147.378 263.527 147.898 262.747 148.138C261.947 148.398 260.547 148.418 258.567 148.418C258.467 147.978 258.167 147.238 257.927 146.798C259.547 146.878 261.167 146.858 261.647 146.838C262.087 146.818 262.227 146.678 262.227 146.258V131.918ZM250.467 135.918H251.927V144.978H250.467V135.918ZM251.087 135.918H258.667V143.378H251.087V141.938H257.167V137.338H251.087V135.918ZM248.407 131.458H266.247V132.978H248.407V131.458ZM271.447 130.038L273.007 130.398C272.287 132.058 271.347 133.998 270.547 135.258L269.267 134.878C270.027 133.598 270.967 131.498 271.447 130.038ZM268.087 134.278C270.187 134.218 273.367 134.078 276.507 133.938L276.487 135.278C273.507 135.458 270.407 135.618 268.227 135.738L268.087 134.278ZM269.307 137.178H275.647V138.458H270.707V148.418H269.307V137.178ZM274.967 137.178H276.447V146.718C276.447 147.478 276.287 147.898 275.747 148.138C275.187 148.378 274.307 148.398 273.047 148.398C272.967 147.998 272.747 147.398 272.547 147.018C273.487 147.058 274.347 147.038 274.627 147.018C274.887 147.018 274.967 146.958 274.967 146.698V137.178ZM269.967 140.158H275.747V141.338H269.967V140.158ZM269.967 143.158H275.747V144.358H269.967V143.158ZM278.327 130.078H279.807V136.698C279.807 137.338 279.967 137.478 280.887 137.478C281.307 137.478 283.487 137.478 284.067 137.478C284.847 137.478 284.987 137.138 285.067 135.158C285.387 135.418 285.987 135.638 286.427 135.738C286.247 138.178 285.807 138.838 284.187 138.838C283.767 138.838 281.147 138.838 280.747 138.838C278.827 138.838 278.327 138.378 278.327 136.718V130.078ZM284.447 131.558L285.447 132.658C283.747 133.458 281.347 134.238 279.287 134.818C279.207 134.498 279.007 134.058 278.827 133.758C280.807 133.138 283.087 132.258 284.447 131.558ZM278.327 139.378H279.807V146.138C279.807 146.818 279.987 146.938 280.947 146.938C281.367 146.938 283.627 146.938 284.227 146.938C285.087 146.938 285.207 146.558 285.307 144.298C285.647 144.538 286.247 144.778 286.667 144.858C286.467 147.558 286.027 148.278 284.347 148.278C283.907 148.278 281.207 148.278 280.787 148.278C278.847 148.278 278.327 147.818 278.327 146.158V139.378ZM284.687 140.478L285.687 141.598C284.007 142.558 281.447 143.378 279.287 143.958C279.207 143.658 278.987 143.178 278.827 142.878C280.907 142.278 283.327 141.358 284.687 140.478ZM273.947 131.938L275.187 131.438C276.247 132.838 277.367 134.678 277.827 135.918L276.507 136.498C276.087 135.278 275.007 133.358 273.947 131.938ZM296.647 142.018L296.247 134.258L296.187 131.878H298.407L298.347 134.258L297.947 142.018H296.647ZM297.307 146.938C296.587 146.938 296.007 146.438 296.007 145.638C296.007 144.838 296.587 144.298 297.307 144.298C298.007 144.298 298.587 144.838 298.587 145.638C298.587 146.438 298.007 146.938 297.307 146.938Z" fill="black"/>
</g>
<defs>
<filter id="filter0_dd_102_164" x="0.562561" y="0" width="377.594" height="236.971" filterUnits="userSpaceOnUse" color-interpolation-filters="sRGB">
<feFlood flood-opacity="0" result="BackgroundImageFix"/>
<feColorMatrix in="SourceAlpha" type="matrix" values="0 0 0 0 0 0 0 0 0 0 0 0 0 0 0 0 0 0 127 0" result="hardAlpha"/>
<feOffset dy="1"/>
<feGaussianBlur stdDeviation="2"/>
<feComposite in2="hardAlpha" operator="out"/>
<feColorMatrix type="matrix" values="0 0 0 0 0.0470588 0 0 0 0 0.0470588 0 0 0 0 0.0509804 0 0 0 0.05 0"/>
<feBlend mode="normal" in2="BackgroundImageFix" result="effect1_dropShadow_102_164"/>
<feColorMatrix in="SourceAlpha" type="matrix" values="0 0 0 0 0 0 0 0 0 0 0 0 0 0 0 0 0 0 127 0" result="hardAlpha"/>
<feOffset dy="1"/>
<feGaussianBlur stdDeviation="2"/>
<feComposite in2="hardAlpha" operator="out"/>
<feColorMatrix type="matrix" values="0 0 0 0 0.0470588 0 0 0 0 0.0470588 0 0 0 0 0.0509804 0 0 0 0.1 0"/>
<feBlend mode="normal" in2="effect1_dropShadow_102_164" result="effect2_dropShadow_102_164"/>
<feBlend mode="normal" in="SourceGraphic" in2="effect2_dropShadow_102_164" result="shape"/>
</filter>
</defs>
</svg>
