<svg width="379" height="237" viewBox="0 0 379 237" fill="none" xmlns="http://www.w3.org/2000/svg">
<g filter="url(#filter0_dd_102_178)">
<mask id="path-1-inside-1_102_178" fill="white">
<path d="M22 18.1875C22 9.79967 28.7997 3 37.1875 3L358.969 3C367.357 3 374.156 9.79968 374.156 18.1875L374.156 216.783C374.156 225.171 367.357 231.971 358.969 231.971L37.1875 231.971C28.7997 231.971 22 225.171 22 216.783L22 18.1875Z"/>
</mask>
<path d="M22 18.1875C22 9.79967 28.7997 3 37.1875 3L358.969 3C367.357 3 374.156 9.79968 374.156 18.1875L374.156 216.783C374.156 225.171 367.357 231.971 358.969 231.971L37.1875 231.971C28.7997 231.971 22 225.171 22 216.783L22 18.1875Z" fill="white" shape-rendering="crispEdges"/>
<path d="M37.1875 5.84766L358.969 5.84766L358.969 0.152343L37.1875 0.152344L37.1875 5.84766ZM371.309 18.1875L371.309 216.783L377.004 216.783L377.004 18.1875L371.309 18.1875ZM358.969 229.123L37.1875 229.123L37.1875 234.818L358.969 234.818L358.969 229.123ZM24.8477 216.783L24.8477 18.1875L19.1523 18.1875L19.1523 216.783L24.8477 216.783ZM37.1875 229.123C30.3724 229.123 24.8477 223.598 24.8477 216.783L19.1523 216.783C19.1523 226.744 27.227 234.818 37.1875 234.818L37.1875 229.123ZM371.309 216.783C371.309 223.598 365.784 229.123 358.969 229.123L358.969 234.818C368.93 234.818 377.004 226.744 377.004 216.783L371.309 216.783ZM358.969 5.84766C365.784 5.84766 371.309 11.3724 371.309 18.1875L377.004 18.1875C377.004 8.22695 368.93 0.152343 358.969 0.152343L358.969 5.84766ZM37.1875 0.152344C27.227 0.152344 19.1523 8.22695 19.1523 18.1875L24.8477 18.1875C24.8477 11.3724 30.3724 5.84766 37.1875 5.84766L37.1875 0.152344Z" fill="#D9D9D9" mask="url(#path-1-inside-1_102_178)"/>
<path d="M42.8291 113.736L28.2814 131.267L10.75 116.719L25.2977 99.1879L42.8291 113.736Z" fill="white"/>
<path fill-rule="evenodd" clip-rule="evenodd" d="M19.1102 100.313L4.56254 117.844L22.0939 132.392L23.9124 130.201L8.57242 117.471L21.3016 102.131L19.1102 100.313Z" fill="#D9D9D9"/>
<path d="M64.42 111.28C60.72 111.28 58.16 108.32 58.16 103.62C58.16 98.92 60.72 96.08 64.42 96.08C68.1 96.08 70.66 98.94 70.66 103.62C70.66 108.32 68.1 111.28 64.42 111.28ZM64.42 109.74C67.04 109.74 68.78 107.38 68.78 103.62C68.78 99.96 67.04 97.7 64.42 97.7C61.78 97.7 60.06 99.96 60.06 103.62C60.06 107.38 61.78 109.74 64.42 109.74ZM68.9 114.7C66.1 114.7 64.2 113.1 63.42 110.96L65.34 110.82C65.92 112.36 67.36 113.14 69.1 113.14C69.76 113.14 70.24 113.06 70.64 112.92L71 114.36C70.54 114.54 69.78 114.7 68.9 114.7ZM76.8438 111.28C74.5638 111.28 73.5238 109.8 73.5238 107.02V100.14H75.3438V106.8C75.3438 108.82 75.9638 109.68 77.4038 109.68C78.5038 109.68 79.3038 109.14 80.3238 107.86V100.14H82.1438V111H80.6438L80.4838 109.3H80.4438C79.4238 110.48 78.3438 111.28 76.8438 111.28ZM85.8322 111V100.14H87.6522V111H85.8322ZM86.7522 97.9C86.0322 97.9 85.5322 97.44 85.5322 96.68C85.5322 95.98 86.0322 95.52 86.7522 95.52C87.4522 95.52 87.9722 95.98 87.9722 96.68C87.9722 97.44 87.4522 97.9 86.7522 97.9ZM95.6 111.28C92.72 111.28 90.52 109.18 90.52 105.6C90.52 101.96 92.96 99.88 95.74 99.88C97.16 99.88 98.16 100.46 98.92 101.16L98 102.36C97.36 101.78 96.68 101.4 95.84 101.4C93.84 101.4 92.4 103.08 92.4 105.6C92.4 108.08 93.78 109.76 95.78 109.76C96.76 109.76 97.66 109.28 98.34 108.68L99.12 109.9C98.16 110.76 96.9 111.28 95.6 111.28ZM101.535 111V95.1H103.335V105.88H103.395L108.015 100.14H110.055L106.435 104.52L110.515 111H108.535L105.355 105.76L103.335 108.14V111H101.535ZM122.743 111.28C119.083 111.28 116.363 108.44 116.363 103.68C116.363 98.96 119.143 96.08 122.863 96.08C124.643 96.08 126.023 96.94 126.883 97.88L125.863 99.08C125.103 98.26 124.123 97.7 122.883 97.7C120.103 97.7 118.263 99.98 118.263 103.64C118.263 107.34 120.023 109.64 122.823 109.64C124.203 109.64 125.283 109.04 126.223 108L127.223 109.16C126.063 110.52 124.643 111.28 122.743 111.28ZM132.297 111.28C130.477 111.28 129.117 110.14 129.117 108.18C129.117 105.82 131.157 104.64 135.777 104.12C135.777 102.72 135.337 101.38 133.557 101.38C132.277 101.38 131.137 101.98 130.297 102.56L129.577 101.28C130.577 100.64 132.097 99.88 133.837 99.88C136.497 99.88 137.617 101.64 137.617 104.34V111H136.117L135.957 109.72H135.877C134.857 110.58 133.637 111.28 132.297 111.28ZM132.797 109.8C133.857 109.8 134.737 109.3 135.777 108.36V105.34C132.117 105.76 130.897 106.66 130.897 108.06C130.897 109.3 131.737 109.8 132.797 109.8ZM141.067 111V100.14H142.547L142.727 102.12H142.787C143.527 100.74 144.647 99.88 145.867 99.88C146.347 99.88 146.667 99.94 147.027 100.1L146.687 101.7C146.307 101.58 146.067 101.52 145.627 101.52C144.727 101.52 143.607 102.18 142.887 104.04V111H141.067ZM152.227 111.28C149.507 111.28 147.747 109.22 147.747 105.6C147.747 102.06 149.987 99.88 152.467 99.88C153.727 99.88 154.567 100.34 155.507 101.14L155.427 99.26V95.1H157.247V111H155.747L155.587 109.72H155.547C154.687 110.58 153.547 111.28 152.227 111.28ZM152.627 109.74C153.647 109.74 154.527 109.24 155.427 108.26V102.56C154.507 101.72 153.667 101.4 152.767 101.4C151.027 101.4 149.647 103.1 149.647 105.58C149.647 108.18 150.727 109.74 152.627 109.74ZM161.029 98.4C161.769 98.48 162.629 98.52 163.489 98.52C165.649 98.52 168.169 98.26 170.469 97.5L170.509 98.98C168.549 99.52 165.929 99.96 163.489 99.94C162.749 99.94 161.889 99.92 161.149 99.9L161.029 98.4ZM168.129 95.14C167.869 96.12 167.449 98 166.969 99.42C166.009 102.3 164.169 105.94 162.509 108.18L160.969 107.38C162.749 105.3 164.609 101.74 165.429 99.38C165.869 98.12 166.309 96.36 166.369 94.96L168.129 95.14ZM172.849 101.32C172.789 102.14 172.789 102.74 172.809 103.46C172.849 104.76 173.029 107.8 173.029 109.12C173.029 110.72 172.009 112.02 169.529 112.02C167.329 112.02 165.549 111.14 165.549 109.14C165.549 107.3 167.289 106.14 169.529 106.14C172.889 106.14 175.469 107.82 177.109 109.24L176.269 110.6C174.729 109.2 172.429 107.42 169.489 107.42C168.009 107.42 167.009 108.1 167.009 109.02C167.009 109.94 167.789 110.58 169.349 110.58C171.009 110.58 171.569 109.7 171.569 108.62C171.569 107.1 171.349 103.52 171.269 101.32H172.849ZM176.849 101.84C175.769 100.92 173.589 99.7 172.269 99.08L173.069 97.88C174.529 98.5 176.789 99.8 177.749 100.52L176.849 101.84ZM185.789 95.32C187.509 95.88 191.769 96.7 193.549 96.88L193.169 98.4C191.249 98.14 186.929 97.26 185.389 96.86L185.789 95.32ZM185.349 98.98C185.089 100.34 184.729 103.3 184.529 104.6C186.449 102.92 188.649 102.14 191.049 102.14C194.109 102.14 196.149 103.98 196.149 106.34C196.149 109.9 192.969 112.32 185.549 111.7L185.069 110.08C191.389 110.84 194.469 109.02 194.469 106.28C194.469 104.7 192.969 103.56 190.929 103.56C188.309 103.56 186.149 104.54 184.749 106.24C184.449 106.58 184.269 106.9 184.149 107.22L182.649 106.86C183.049 105.04 183.549 100.84 183.669 98.76L185.349 98.98ZM200.949 96.14H217.329V97.42H200.949V96.14ZM201.589 110.8H216.729V112.06H201.589V110.8ZM204.889 98.74H213.309V99.88H204.889V98.74ZM204.889 101.26H213.309V102.4H204.889V101.26ZM200.009 103.84H218.189V105.1H200.009V103.84ZM204.209 107.42H214.029V108.66H204.209V107.42ZM203.989 94.22H205.489V104.54H203.989V94.22ZM212.789 94.22H214.289V104.54H212.789V94.22ZM208.289 105.74H209.829V111.5H208.289V105.74ZM205.049 104.18L206.309 104.66C205.089 106.72 202.889 108.62 200.789 109.6C200.569 109.26 200.149 108.74 199.809 108.46C201.829 107.66 203.969 105.94 205.049 104.18ZM213.229 104.18C214.289 105.88 216.369 107.46 218.449 108.2C218.109 108.48 217.669 109 217.449 109.36C215.329 108.46 213.209 106.6 212.049 104.64L213.229 104.18ZM220.389 98.42H237.849V99.94H220.389V98.42ZM224.389 107.34H233.709V108.86H224.389V107.34ZM228.289 94.22H229.869V112.6H228.289V94.22ZM227.829 98.92L229.169 99.38C227.389 103.62 224.249 107.44 220.789 109.46C220.549 109.08 220.049 108.52 219.709 108.22C223.049 106.48 226.229 102.76 227.829 98.92ZM230.369 98.98C231.949 102.78 235.089 106.42 238.549 108.08C238.169 108.4 237.649 109 237.409 109.42C233.869 107.46 230.789 103.64 229.029 99.44L230.369 98.98ZM246.069 104.44H258.209V105.66H246.069V104.44ZM247.649 107.6L248.449 106.68C249.489 107.28 250.829 108.18 251.489 108.8L250.649 109.84C250.009 109.2 248.689 108.24 247.649 107.6ZM254.129 103.26L254.869 102.54C255.609 102.94 256.529 103.54 256.989 104L256.209 104.78C255.769 104.34 254.869 103.68 254.129 103.26ZM247.549 105H248.909C248.689 108.1 248.089 110.92 245.849 112.56C245.649 112.26 245.249 111.8 244.929 111.58C246.909 110.18 247.389 107.62 247.549 105ZM251.149 94.22H252.489C252.389 104.18 253.849 111.34 256.569 111.34C257.149 111.34 257.349 110.88 257.449 109.06C257.729 109.34 258.189 109.6 258.509 109.72C258.249 111.98 257.809 112.64 256.469 112.64C252.449 112.62 251.189 104.44 251.149 94.22ZM255.629 105.98L256.909 106.46C255.609 109.22 253.149 111.32 250.069 112.6C249.889 112.34 249.509 111.88 249.229 111.64C252.229 110.48 254.509 108.46 255.629 105.98ZM252.589 97.7L253.209 96.88C254.089 97.48 255.089 98.4 255.549 99.04L254.909 99.98C254.449 99.32 253.449 98.36 252.589 97.7ZM256.329 100.12L257.249 99.76C257.809 100.68 258.349 101.88 258.509 102.64L257.529 103.1C257.349 102.32 256.849 101.06 256.329 100.12ZM252.849 101.52C254.089 101.44 255.749 101.34 257.509 101.22V102.26C255.909 102.42 254.389 102.56 253.069 102.68L252.849 101.52ZM254.909 94.4L256.069 94.86C255.509 95.98 254.829 97.28 254.269 98.1L253.409 97.7C253.909 96.82 254.569 95.38 254.909 94.4ZM256.549 96.4L257.669 96.94C256.649 98.66 255.289 100.8 254.209 102.16L253.369 101.68C254.429 100.3 255.789 98.02 256.549 96.4ZM245.809 97.7L246.449 96.88C247.309 97.48 248.329 98.4 248.769 99.04L248.129 99.98C247.669 99.32 246.669 98.36 245.809 97.7ZM249.289 100.24L250.209 99.9C250.729 100.82 251.209 102.04 251.329 102.8L250.349 103.22C250.209 102.44 249.769 101.2 249.289 100.24ZM245.889 101.74C247.149 101.68 248.789 101.56 250.569 101.42V102.5C248.969 102.66 247.429 102.8 246.109 102.92L245.889 101.74ZM248.149 94.4L249.309 94.88C248.729 95.98 248.049 97.3 247.509 98.12L246.649 97.74C247.149 96.84 247.789 95.38 248.149 94.4ZM249.789 96.4L250.889 96.94C249.849 98.72 248.449 100.94 247.309 102.32L246.449 101.86C247.569 100.44 248.989 98.08 249.789 96.4ZM240.129 98.54H246.189V99.94H240.129V98.54ZM242.669 94.2H244.029V112.58H242.669V94.2ZM242.609 99.38L243.509 99.66C242.949 102.82 241.769 106.76 240.449 108.76C240.289 108.4 239.949 107.84 239.709 107.52C240.929 105.72 242.129 102.22 242.609 99.38ZM243.929 100.7C244.329 101.24 245.889 103.74 246.209 104.32L245.449 105.42C245.049 104.42 243.789 102.06 243.309 101.28L243.929 100.7ZM263.249 94.2L264.809 94.56C264.089 96.22 263.149 98.16 262.349 99.42L261.069 99.04C261.829 97.76 262.769 95.66 263.249 94.2ZM259.889 98.44C261.989 98.38 265.169 98.24 268.309 98.1L268.289 99.44C265.309 99.62 262.209 99.78 260.029 99.9L259.889 98.44ZM261.109 101.34H267.449V102.62H262.509V112.58H261.109V101.34ZM266.769 101.34H268.249V110.88C268.249 111.64 268.089 112.06 267.549 112.3C266.989 112.54 266.109 112.56 264.849 112.56C264.769 112.16 264.549 111.56 264.349 111.18C265.289 111.22 266.149 111.2 266.429 111.18C266.689 111.18 266.769 111.12 266.769 110.86V101.34ZM261.769 104.32H267.549V105.5H261.769V104.32ZM261.769 107.32H267.549V108.52H261.769V107.32ZM270.129 94.24H271.609V100.86C271.609 101.5 271.769 101.64 272.689 101.64C273.109 101.64 275.289 101.64 275.869 101.64C276.649 101.64 276.789 101.3 276.869 99.32C277.189 99.58 277.789 99.8 278.229 99.9C278.049 102.34 277.609 103 275.989 103C275.569 103 272.949 103 272.549 103C270.629 103 270.129 102.54 270.129 100.88V94.24ZM276.249 95.72L277.249 96.82C275.549 97.62 273.149 98.4 271.089 98.98C271.009 98.66 270.809 98.22 270.629 97.92C272.609 97.3 274.889 96.42 276.249 95.72ZM270.129 103.54H271.609V110.3C271.609 110.98 271.789 111.1 272.749 111.1C273.169 111.1 275.429 111.1 276.029 111.1C276.889 111.1 277.009 110.72 277.109 108.46C277.449 108.7 278.049 108.94 278.469 109.02C278.269 111.72 277.829 112.44 276.149 112.44C275.709 112.44 273.009 112.44 272.589 112.44C270.649 112.44 270.129 111.98 270.129 110.32V103.54ZM276.489 104.64L277.489 105.76C275.809 106.72 273.249 107.54 271.089 108.12C271.009 107.82 270.789 107.34 270.629 107.04C272.709 106.44 275.129 105.52 276.489 104.64ZM265.749 96.1L266.989 95.6C268.049 97 269.169 98.84 269.629 100.08L268.309 100.66C267.889 99.44 266.809 97.52 265.749 96.1ZM288.309 95.2C288.129 95.98 287.909 97.08 287.389 98.42C286.889 99.64 286.149 100.98 285.349 102.02C286.129 101.56 287.269 101.28 288.149 101.28C289.689 101.28 290.889 102.2 290.889 103.82C290.889 104.86 290.929 107.16 290.949 108.4H289.409C289.489 107.34 289.509 105.28 289.489 104.24C289.469 103.08 288.669 102.54 287.629 102.54C286.349 102.54 285.089 103.18 284.169 104C283.589 104.56 283.029 105.28 282.369 106.1L280.989 105.08C283.869 102.32 285.209 100 285.889 98.3C286.329 97.2 286.609 96 286.669 95.06L288.309 95.2ZM281.449 97.36C282.529 97.5 283.909 97.56 284.829 97.56C287.529 97.56 290.989 97.4 293.809 96.9V98.38C291.009 98.8 287.289 98.98 284.749 98.98C283.889 98.98 282.569 98.94 281.449 98.86V97.36ZM296.729 102.18C296.229 102.34 295.509 102.62 294.969 102.82C293.549 103.38 291.649 104.14 289.709 105.14C287.729 106.18 286.329 107.26 286.329 108.64C286.329 110.2 287.869 110.44 289.929 110.44C291.489 110.44 293.649 110.26 295.409 109.94L295.349 111.56C293.829 111.74 291.609 111.9 289.869 111.9C287.029 111.9 284.729 111.28 284.729 108.86C284.729 106.42 287.209 104.92 289.589 103.7C291.489 102.72 293.109 102.1 294.429 101.48C295.029 101.2 295.529 100.98 296.089 100.7L296.729 102.18ZM304.209 94.2L305.669 94.62C304.569 96.88 302.849 99.04 301.169 100.44C300.889 100.16 300.289 99.68 299.929 99.44C301.629 98.18 303.269 96.22 304.209 94.2ZM303.509 96.5H317.289V97.86H303.009L303.509 96.5ZM300.169 101.24H318.049V102.6H300.169V101.24ZM300.489 106.02H317.769V107.38H300.489V106.02ZM306.549 96.96H307.849V106.68H306.549V96.96ZM302.969 96.96H304.329V106.74H302.969V96.96ZM310.169 96.96H311.449V106.74H310.169V96.96ZM313.829 96.96H315.209V106.74H313.829V96.96ZM306.009 108.74L307.389 108.6C307.649 109.78 307.869 111.3 307.889 112.22L306.409 112.44C306.409 111.5 306.249 109.94 306.009 108.74ZM310.089 108.74L311.489 108.5C312.029 109.64 312.569 111.2 312.769 112.14L311.289 112.46C311.109 111.5 310.609 109.94 310.089 108.74ZM314.169 108.62L315.569 108.14C316.569 109.34 317.749 111.02 318.289 112.1L316.789 112.64C316.309 111.58 315.169 109.86 314.169 108.62ZM302.509 108.22L303.949 108.58C303.429 110.08 302.509 111.68 301.449 112.64L300.029 112.04C301.069 111.2 302.009 109.68 302.509 108.22ZM323.269 94.28H324.669V112.58H323.269V94.28ZM320.049 100.92H327.949V102.34H320.049V100.92ZM323.049 101.66L323.949 102.06C323.249 104.78 321.829 108.24 320.489 110.06C320.329 109.62 319.969 108.98 319.729 108.58C321.009 107.04 322.409 104 323.049 101.66ZM324.629 102.6C325.189 103.2 327.229 105.92 327.689 106.58L326.689 107.78C326.189 106.7 324.549 104.08 323.889 103.22L324.629 102.6ZM320.189 95.76L321.289 95.48C321.849 96.88 322.309 98.7 322.449 99.9L321.269 100.22C321.169 99.02 320.709 97.16 320.189 95.76ZM326.649 95.4L327.969 95.74C327.449 97.26 326.829 99.14 326.289 100.26L325.329 99.96C325.769 98.76 326.369 96.76 326.649 95.4ZM334.409 94.22H335.829V112.6H334.409V94.22ZM327.909 106.94L338.189 105.1L338.429 106.48L328.149 108.34L327.909 106.94ZM329.409 96.66L330.189 95.64C331.349 96.32 332.729 97.34 333.389 98.08L332.589 99.24C331.949 98.46 330.569 97.38 329.409 96.66ZM328.389 101.7L329.089 100.64C330.289 101.26 331.769 102.2 332.489 102.92L331.729 104.1C331.029 103.38 329.589 102.36 328.389 101.7ZM58.56 126.84C59.32 126.82 59.96 126.78 60.36 126.74C61.64 126.6 65.42 126.24 69.1 125.92C71.3 125.74 73.16 125.62 74.5 125.58L74.52 127.18C73.36 127.16 71.62 127.2 70.6 127.48C67.74 128.4 66 131.46 66 133.82C66 137.72 69.66 138.98 72.9 139.1L72.32 140.74C68.62 140.6 64.42 138.64 64.42 134.16C64.42 131.06 66.32 128.5 68.14 127.42C66 127.64 60.9 128.14 58.74 128.6L58.56 126.84ZM71.62 129.62C72.08 130.28 72.84 131.52 73.28 132.42L72.24 132.88C71.78 131.92 71.22 130.9 70.62 130.06L71.62 129.62ZM73.8 128.78C74.3 129.44 75.08 130.66 75.54 131.54L74.52 132.04C74.04 131.08 73.44 130.08 72.82 129.24L73.8 128.78ZM83.4 125.42H96.24V126.82H83.4V125.42ZM85.38 130.04V133.04H94.12V130.04H85.38ZM84 128.76H95.58V134.32H84V128.76ZM85.24 134.72C87.12 137.86 91.22 139.72 96.42 140.3C96.1 140.62 95.72 141.22 95.52 141.64C90.22 140.88 86.12 138.8 84 135.14L85.24 134.72ZM88.96 123.28H90.44V132.14C90.44 136 89.78 139.84 83.58 141.68C83.4 141.34 82.98 140.74 82.68 140.42C88.62 138.92 88.96 135.5 88.96 132.12V123.28ZM82.54 123.16L83.96 123.6C82.6 126.98 80.46 130.34 78.24 132.56C78.1 132.22 77.68 131.44 77.4 131.08C79.42 129.18 81.38 126.2 82.54 123.16ZM80.44 128.4L81.86 126.98L81.88 127V141.7H80.44V128.4ZM103.24 124.24C105.4 124.72 109.22 125.18 111.14 125.28L110.92 126.76C108.92 126.58 105.42 126.14 102.98 125.7L103.24 124.24ZM111.54 129.96C111.16 130.22 110.66 130.64 110.42 130.84C109.66 131.54 107.42 133.64 106.66 134.42C106.88 134.4 107.24 134.4 107.46 134.46C108.22 134.54 108.68 135.06 108.96 135.88C109.16 136.46 109.44 137.48 109.64 138.12C109.88 138.88 110.34 139.22 111.38 139.22C112.68 139.22 114.2 139.04 115.16 138.8L115.04 140.48C114.2 140.64 112.36 140.78 111.3 140.78C109.68 140.78 108.7 140.4 108.26 139.08C108.06 138.48 107.78 137.3 107.58 136.74C107.36 136.04 106.92 135.66 106.36 135.66C105.82 135.66 105.34 135.94 104.88 136.4C104.14 137.1 101.96 139.4 100.82 140.84L99.3 139.78C99.56 139.58 99.92 139.26 100.3 138.88C101.12 138.08 106.56 132.62 108.52 130.66C106.94 130.74 103.58 131.04 102.36 131.14C101.7 131.18 101.18 131.26 100.76 131.32L100.62 129.58C101.08 129.62 101.66 129.62 102.3 129.62C103.46 129.58 108.1 129.28 109.62 129.08C109.96 129.04 110.38 128.94 110.58 128.86L111.54 129.96ZM121.155 125.28C121.595 125.32 122.155 125.34 122.555 125.34C123.615 125.34 128.355 125.2 129.415 125.1C130.015 125.04 130.295 125 130.515 124.92L131.435 126.1C131.075 126.34 130.675 126.6 130.295 126.9C129.315 127.66 126.595 130 125.035 131.28C125.955 130.98 126.915 130.88 127.815 130.88C131.135 130.88 133.515 132.86 133.515 135.56C133.515 138.78 130.855 140.88 126.615 140.88C123.895 140.88 122.235 139.7 122.235 138.02C122.235 136.66 123.475 135.42 125.315 135.42C127.975 135.42 129.315 137.3 129.455 139.32L128.015 139.56C127.895 137.86 126.915 136.64 125.315 136.64C124.395 136.64 123.695 137.2 123.695 137.9C123.695 138.88 124.795 139.46 126.375 139.46C129.775 139.46 131.915 138.06 131.915 135.56C131.915 133.58 130.035 132.12 127.415 132.12C124.095 132.12 122.295 133.52 119.775 136.1L118.615 134.94C120.275 133.58 122.855 131.42 123.995 130.44C125.115 129.52 127.635 127.42 128.635 126.52C127.575 126.58 123.575 126.74 122.535 126.8C122.075 126.84 121.635 126.86 121.195 126.92L121.155 125.28ZM145.735 135.18L145.335 127.42L145.275 125.04H147.495L147.435 127.42L147.035 135.18H145.735ZM146.395 140.1C145.675 140.1 145.095 139.6 145.095 138.8C145.095 138 145.675 137.46 146.395 137.46C147.095 137.46 147.675 138 147.675 138.8C147.675 139.6 147.095 140.1 146.395 140.1Z" fill="black"/>
</g>
<defs>
<filter id="filter0_dd_102_178" x="0.5625" y="0" width="377.594" height="236.971" filterUnits="userSpaceOnUse" color-interpolation-filters="sRGB">
<feFlood flood-opacity="0" result="BackgroundImageFix"/>
<feColorMatrix in="SourceAlpha" type="matrix" values="0 0 0 0 0 0 0 0 0 0 0 0 0 0 0 0 0 0 127 0" result="hardAlpha"/>
<feOffset dy="1"/>
<feGaussianBlur stdDeviation="2"/>
<feComposite in2="hardAlpha" operator="out"/>
<feColorMatrix type="matrix" values="0 0 0 0 0.0470588 0 0 0 0 0.0470588 0 0 0 0 0.0509804 0 0 0 0.05 0"/>
<feBlend mode="normal" in2="BackgroundImageFix" result="effect1_dropShadow_102_178"/>
<feColorMatrix in="SourceAlpha" type="matrix" values="0 0 0 0 0 0 0 0 0 0 0 0 0 0 0 0 0 0 127 0" result="hardAlpha"/>
<feOffset dy="1"/>
<feGaussianBlur stdDeviation="2"/>
<feComposite in2="hardAlpha" operator="out"/>
<feColorMatrix type="matrix" values="0 0 0 0 0.0470588 0 0 0 0 0.0470588 0 0 0 0 0.0509804 0 0 0 0.1 0"/>
<feBlend mode="normal" in2="effect1_dropShadow_102_178" result="effect2_dropShadow_102_178"/>
<feBlend mode="normal" in="SourceGraphic" in2="effect2_dropShadow_102_178" result="shape"/>
</filter>
</defs>
</svg>
